%TF.GenerationSoftware,KiCad,Pcbnew,9.0.5*%
%TF.CreationDate,2025-10-28T11:21:23+01:00*%
%TF.ProjectId,wokringv1ar,776f6b72-696e-4677-9631-61722e6b6963,rev?*%
%TF.SameCoordinates,Original*%
%TF.FileFunction,Legend,Top*%
%TF.FilePolarity,Positive*%
%FSLAX46Y46*%
G04 Gerber Fmt 4.6, Leading zero omitted, Abs format (unit mm)*
G04 Created by KiCad (PCBNEW 9.0.5) date 2025-10-28 11:21:23*
%MOMM*%
%LPD*%
G01*
G04 APERTURE LIST*
%ADD10C,0.150000*%
%ADD11C,0.100000*%
%ADD12C,0.120000*%
%ADD13C,0.127000*%
%ADD14C,0.200000*%
G04 APERTURE END LIST*
D10*
X188374819Y-88000951D02*
X187374819Y-88000951D01*
X187374819Y-88000951D02*
X188089104Y-87667618D01*
X188089104Y-87667618D02*
X187374819Y-87334285D01*
X187374819Y-87334285D02*
X188374819Y-87334285D01*
X188374819Y-86858094D02*
X187374819Y-86858094D01*
X187374819Y-86858094D02*
X188089104Y-86524761D01*
X188089104Y-86524761D02*
X187374819Y-86191428D01*
X187374819Y-86191428D02*
X188374819Y-86191428D01*
X187374819Y-85286666D02*
X187374819Y-85477142D01*
X187374819Y-85477142D02*
X187422438Y-85572380D01*
X187422438Y-85572380D02*
X187470057Y-85619999D01*
X187470057Y-85619999D02*
X187612914Y-85715237D01*
X187612914Y-85715237D02*
X187803390Y-85762856D01*
X187803390Y-85762856D02*
X188184342Y-85762856D01*
X188184342Y-85762856D02*
X188279580Y-85715237D01*
X188279580Y-85715237D02*
X188327200Y-85667618D01*
X188327200Y-85667618D02*
X188374819Y-85572380D01*
X188374819Y-85572380D02*
X188374819Y-85381904D01*
X188374819Y-85381904D02*
X188327200Y-85286666D01*
X188327200Y-85286666D02*
X188279580Y-85239047D01*
X188279580Y-85239047D02*
X188184342Y-85191428D01*
X188184342Y-85191428D02*
X187946247Y-85191428D01*
X187946247Y-85191428D02*
X187851009Y-85239047D01*
X187851009Y-85239047D02*
X187803390Y-85286666D01*
X187803390Y-85286666D02*
X187755771Y-85381904D01*
X187755771Y-85381904D02*
X187755771Y-85572380D01*
X187755771Y-85572380D02*
X187803390Y-85667618D01*
X187803390Y-85667618D02*
X187851009Y-85715237D01*
X187851009Y-85715237D02*
X187946247Y-85762856D01*
X90783095Y-22189819D02*
X90783095Y-22999342D01*
X90783095Y-22999342D02*
X90830714Y-23094580D01*
X90830714Y-23094580D02*
X90878333Y-23142200D01*
X90878333Y-23142200D02*
X90973571Y-23189819D01*
X90973571Y-23189819D02*
X91164047Y-23189819D01*
X91164047Y-23189819D02*
X91259285Y-23142200D01*
X91259285Y-23142200D02*
X91306904Y-23094580D01*
X91306904Y-23094580D02*
X91354523Y-22999342D01*
X91354523Y-22999342D02*
X91354523Y-22189819D01*
X92354523Y-23189819D02*
X91783095Y-23189819D01*
X92068809Y-23189819D02*
X92068809Y-22189819D01*
X92068809Y-22189819D02*
X91973571Y-22332676D01*
X91973571Y-22332676D02*
X91878333Y-22427914D01*
X91878333Y-22427914D02*
X91783095Y-22475533D01*
D11*
X123622580Y-130666667D02*
X123622580Y-131238095D01*
X122622580Y-130952381D02*
X123622580Y-130952381D01*
X122622580Y-131571429D02*
X123622580Y-131571429D01*
X123622580Y-131571429D02*
X122908295Y-131904762D01*
X122908295Y-131904762D02*
X123622580Y-132238095D01*
X123622580Y-132238095D02*
X122622580Y-132238095D01*
X122717819Y-133285714D02*
X122670200Y-133238095D01*
X122670200Y-133238095D02*
X122622580Y-133095238D01*
X122622580Y-133095238D02*
X122622580Y-133000000D01*
X122622580Y-133000000D02*
X122670200Y-132857143D01*
X122670200Y-132857143D02*
X122765438Y-132761905D01*
X122765438Y-132761905D02*
X122860676Y-132714286D01*
X122860676Y-132714286D02*
X123051152Y-132666667D01*
X123051152Y-132666667D02*
X123194009Y-132666667D01*
X123194009Y-132666667D02*
X123384485Y-132714286D01*
X123384485Y-132714286D02*
X123479723Y-132761905D01*
X123479723Y-132761905D02*
X123574961Y-132857143D01*
X123574961Y-132857143D02*
X123622580Y-133000000D01*
X123622580Y-133000000D02*
X123622580Y-133095238D01*
X123622580Y-133095238D02*
X123574961Y-133238095D01*
X123574961Y-133238095D02*
X123527342Y-133285714D01*
X123527342Y-133666667D02*
X123574961Y-133714286D01*
X123574961Y-133714286D02*
X123622580Y-133809524D01*
X123622580Y-133809524D02*
X123622580Y-134047619D01*
X123622580Y-134047619D02*
X123574961Y-134142857D01*
X123574961Y-134142857D02*
X123527342Y-134190476D01*
X123527342Y-134190476D02*
X123432104Y-134238095D01*
X123432104Y-134238095D02*
X123336866Y-134238095D01*
X123336866Y-134238095D02*
X123194009Y-134190476D01*
X123194009Y-134190476D02*
X122622580Y-133619048D01*
X122622580Y-133619048D02*
X122622580Y-134238095D01*
X128731390Y-128303884D02*
X128731390Y-128637217D01*
X128207580Y-128780074D02*
X128207580Y-128303884D01*
X128207580Y-128303884D02*
X129207580Y-128303884D01*
X129207580Y-128303884D02*
X129207580Y-128780074D01*
X128207580Y-129208646D02*
X129207580Y-129208646D01*
X129207580Y-129208646D02*
X128207580Y-129780074D01*
X128207580Y-129780074D02*
X129207580Y-129780074D01*
D10*
X118239048Y-154374819D02*
X118239048Y-153374819D01*
X118239048Y-153374819D02*
X118572381Y-154089104D01*
X118572381Y-154089104D02*
X118905714Y-153374819D01*
X118905714Y-153374819D02*
X118905714Y-154374819D01*
X119381905Y-154374819D02*
X119381905Y-153374819D01*
X119381905Y-153374819D02*
X119715238Y-154089104D01*
X119715238Y-154089104D02*
X120048571Y-153374819D01*
X120048571Y-153374819D02*
X120048571Y-154374819D01*
X120477143Y-153470057D02*
X120524762Y-153422438D01*
X120524762Y-153422438D02*
X120620000Y-153374819D01*
X120620000Y-153374819D02*
X120858095Y-153374819D01*
X120858095Y-153374819D02*
X120953333Y-153422438D01*
X120953333Y-153422438D02*
X121000952Y-153470057D01*
X121000952Y-153470057D02*
X121048571Y-153565295D01*
X121048571Y-153565295D02*
X121048571Y-153660533D01*
X121048571Y-153660533D02*
X121000952Y-153803390D01*
X121000952Y-153803390D02*
X120429524Y-154374819D01*
X120429524Y-154374819D02*
X121048571Y-154374819D01*
X95674819Y-119373333D02*
X96389104Y-119373333D01*
X96389104Y-119373333D02*
X96531961Y-119420952D01*
X96531961Y-119420952D02*
X96627200Y-119516190D01*
X96627200Y-119516190D02*
X96674819Y-119659047D01*
X96674819Y-119659047D02*
X96674819Y-119754285D01*
X96674819Y-118373333D02*
X96674819Y-118944761D01*
X96674819Y-118659047D02*
X95674819Y-118659047D01*
X95674819Y-118659047D02*
X95817676Y-118754285D01*
X95817676Y-118754285D02*
X95912914Y-118849523D01*
X95912914Y-118849523D02*
X95960533Y-118944761D01*
D11*
X102542580Y-130666667D02*
X102542580Y-131238095D01*
X101542580Y-130952381D02*
X102542580Y-130952381D01*
X101542580Y-131571429D02*
X102542580Y-131571429D01*
X102542580Y-131571429D02*
X101828295Y-131904762D01*
X101828295Y-131904762D02*
X102542580Y-132238095D01*
X102542580Y-132238095D02*
X101542580Y-132238095D01*
X101637819Y-133285714D02*
X101590200Y-133238095D01*
X101590200Y-133238095D02*
X101542580Y-133095238D01*
X101542580Y-133095238D02*
X101542580Y-133000000D01*
X101542580Y-133000000D02*
X101590200Y-132857143D01*
X101590200Y-132857143D02*
X101685438Y-132761905D01*
X101685438Y-132761905D02*
X101780676Y-132714286D01*
X101780676Y-132714286D02*
X101971152Y-132666667D01*
X101971152Y-132666667D02*
X102114009Y-132666667D01*
X102114009Y-132666667D02*
X102304485Y-132714286D01*
X102304485Y-132714286D02*
X102399723Y-132761905D01*
X102399723Y-132761905D02*
X102494961Y-132857143D01*
X102494961Y-132857143D02*
X102542580Y-133000000D01*
X102542580Y-133000000D02*
X102542580Y-133095238D01*
X102542580Y-133095238D02*
X102494961Y-133238095D01*
X102494961Y-133238095D02*
X102447342Y-133285714D01*
X101542580Y-134238095D02*
X101542580Y-133666667D01*
X101542580Y-133952381D02*
X102542580Y-133952381D01*
X102542580Y-133952381D02*
X102399723Y-133857143D01*
X102399723Y-133857143D02*
X102304485Y-133761905D01*
X102304485Y-133761905D02*
X102256866Y-133666667D01*
X107651390Y-128303884D02*
X107651390Y-128637217D01*
X107127580Y-128780074D02*
X107127580Y-128303884D01*
X107127580Y-128303884D02*
X108127580Y-128303884D01*
X108127580Y-128303884D02*
X108127580Y-128780074D01*
X107127580Y-129208646D02*
X108127580Y-129208646D01*
X108127580Y-129208646D02*
X107127580Y-129780074D01*
X107127580Y-129780074D02*
X108127580Y-129780074D01*
D10*
X188374819Y-108500951D02*
X187374819Y-108500951D01*
X187374819Y-108500951D02*
X188089104Y-108167618D01*
X188089104Y-108167618D02*
X187374819Y-107834285D01*
X187374819Y-107834285D02*
X188374819Y-107834285D01*
X188374819Y-107358094D02*
X187374819Y-107358094D01*
X187374819Y-107358094D02*
X188089104Y-107024761D01*
X188089104Y-107024761D02*
X187374819Y-106691428D01*
X187374819Y-106691428D02*
X188374819Y-106691428D01*
X187374819Y-105739047D02*
X187374819Y-106215237D01*
X187374819Y-106215237D02*
X187851009Y-106262856D01*
X187851009Y-106262856D02*
X187803390Y-106215237D01*
X187803390Y-106215237D02*
X187755771Y-106119999D01*
X187755771Y-106119999D02*
X187755771Y-105881904D01*
X187755771Y-105881904D02*
X187803390Y-105786666D01*
X187803390Y-105786666D02*
X187851009Y-105739047D01*
X187851009Y-105739047D02*
X187946247Y-105691428D01*
X187946247Y-105691428D02*
X188184342Y-105691428D01*
X188184342Y-105691428D02*
X188279580Y-105739047D01*
X188279580Y-105739047D02*
X188327200Y-105786666D01*
X188327200Y-105786666D02*
X188374819Y-105881904D01*
X188374819Y-105881904D02*
X188374819Y-106119999D01*
X188374819Y-106119999D02*
X188327200Y-106215237D01*
X188327200Y-106215237D02*
X188279580Y-106262856D01*
X188374819Y-67260951D02*
X187374819Y-67260951D01*
X187374819Y-67260951D02*
X188089104Y-66927618D01*
X188089104Y-66927618D02*
X187374819Y-66594285D01*
X187374819Y-66594285D02*
X188374819Y-66594285D01*
X188374819Y-66118094D02*
X187374819Y-66118094D01*
X187374819Y-66118094D02*
X188089104Y-65784761D01*
X188089104Y-65784761D02*
X187374819Y-65451428D01*
X187374819Y-65451428D02*
X188374819Y-65451428D01*
X187374819Y-65070475D02*
X187374819Y-64403809D01*
X187374819Y-64403809D02*
X188374819Y-64832380D01*
D11*
X144932580Y-130562667D02*
X144932580Y-131134095D01*
X143932580Y-130848381D02*
X144932580Y-130848381D01*
X143932580Y-131467429D02*
X144932580Y-131467429D01*
X144932580Y-131467429D02*
X144218295Y-131800762D01*
X144218295Y-131800762D02*
X144932580Y-132134095D01*
X144932580Y-132134095D02*
X143932580Y-132134095D01*
X144027819Y-133181714D02*
X143980200Y-133134095D01*
X143980200Y-133134095D02*
X143932580Y-132991238D01*
X143932580Y-132991238D02*
X143932580Y-132896000D01*
X143932580Y-132896000D02*
X143980200Y-132753143D01*
X143980200Y-132753143D02*
X144075438Y-132657905D01*
X144075438Y-132657905D02*
X144170676Y-132610286D01*
X144170676Y-132610286D02*
X144361152Y-132562667D01*
X144361152Y-132562667D02*
X144504009Y-132562667D01*
X144504009Y-132562667D02*
X144694485Y-132610286D01*
X144694485Y-132610286D02*
X144789723Y-132657905D01*
X144789723Y-132657905D02*
X144884961Y-132753143D01*
X144884961Y-132753143D02*
X144932580Y-132896000D01*
X144932580Y-132896000D02*
X144932580Y-132991238D01*
X144932580Y-132991238D02*
X144884961Y-133134095D01*
X144884961Y-133134095D02*
X144837342Y-133181714D01*
X144932580Y-133515048D02*
X144932580Y-134134095D01*
X144932580Y-134134095D02*
X144551628Y-133800762D01*
X144551628Y-133800762D02*
X144551628Y-133943619D01*
X144551628Y-133943619D02*
X144504009Y-134038857D01*
X144504009Y-134038857D02*
X144456390Y-134086476D01*
X144456390Y-134086476D02*
X144361152Y-134134095D01*
X144361152Y-134134095D02*
X144123057Y-134134095D01*
X144123057Y-134134095D02*
X144027819Y-134086476D01*
X144027819Y-134086476D02*
X143980200Y-134038857D01*
X143980200Y-134038857D02*
X143932580Y-133943619D01*
X143932580Y-133943619D02*
X143932580Y-133657905D01*
X143932580Y-133657905D02*
X143980200Y-133562667D01*
X143980200Y-133562667D02*
X144027819Y-133515048D01*
X150041390Y-128199884D02*
X150041390Y-128533217D01*
X149517580Y-128676074D02*
X149517580Y-128199884D01*
X149517580Y-128199884D02*
X150517580Y-128199884D01*
X150517580Y-128199884D02*
X150517580Y-128676074D01*
X149517580Y-129104646D02*
X150517580Y-129104646D01*
X150517580Y-129104646D02*
X149517580Y-129676074D01*
X149517580Y-129676074D02*
X150517580Y-129676074D01*
X165270667Y-105567419D02*
X165842095Y-105567419D01*
X165556381Y-106567419D02*
X165556381Y-105567419D01*
X166175429Y-106567419D02*
X166175429Y-105567419D01*
X166175429Y-105567419D02*
X166508762Y-106281704D01*
X166508762Y-106281704D02*
X166842095Y-105567419D01*
X166842095Y-105567419D02*
X166842095Y-106567419D01*
X167889714Y-106472180D02*
X167842095Y-106519800D01*
X167842095Y-106519800D02*
X167699238Y-106567419D01*
X167699238Y-106567419D02*
X167604000Y-106567419D01*
X167604000Y-106567419D02*
X167461143Y-106519800D01*
X167461143Y-106519800D02*
X167365905Y-106424561D01*
X167365905Y-106424561D02*
X167318286Y-106329323D01*
X167318286Y-106329323D02*
X167270667Y-106138847D01*
X167270667Y-106138847D02*
X167270667Y-105995990D01*
X167270667Y-105995990D02*
X167318286Y-105805514D01*
X167318286Y-105805514D02*
X167365905Y-105710276D01*
X167365905Y-105710276D02*
X167461143Y-105615038D01*
X167461143Y-105615038D02*
X167604000Y-105567419D01*
X167604000Y-105567419D02*
X167699238Y-105567419D01*
X167699238Y-105567419D02*
X167842095Y-105615038D01*
X167842095Y-105615038D02*
X167889714Y-105662657D01*
X168794476Y-105567419D02*
X168318286Y-105567419D01*
X168318286Y-105567419D02*
X168270667Y-106043609D01*
X168270667Y-106043609D02*
X168318286Y-105995990D01*
X168318286Y-105995990D02*
X168413524Y-105948371D01*
X168413524Y-105948371D02*
X168651619Y-105948371D01*
X168651619Y-105948371D02*
X168746857Y-105995990D01*
X168746857Y-105995990D02*
X168794476Y-106043609D01*
X168794476Y-106043609D02*
X168842095Y-106138847D01*
X168842095Y-106138847D02*
X168842095Y-106376942D01*
X168842095Y-106376942D02*
X168794476Y-106472180D01*
X168794476Y-106472180D02*
X168746857Y-106519800D01*
X168746857Y-106519800D02*
X168651619Y-106567419D01*
X168651619Y-106567419D02*
X168413524Y-106567419D01*
X168413524Y-106567419D02*
X168318286Y-106519800D01*
X168318286Y-106519800D02*
X168270667Y-106472180D01*
X162907884Y-100458609D02*
X163241217Y-100458609D01*
X163384074Y-100982419D02*
X162907884Y-100982419D01*
X162907884Y-100982419D02*
X162907884Y-99982419D01*
X162907884Y-99982419D02*
X163384074Y-99982419D01*
X163812646Y-100982419D02*
X163812646Y-99982419D01*
X163812646Y-99982419D02*
X164384074Y-100982419D01*
X164384074Y-100982419D02*
X164384074Y-99982419D01*
X164770667Y-62027419D02*
X165342095Y-62027419D01*
X165056381Y-63027419D02*
X165056381Y-62027419D01*
X165675429Y-63027419D02*
X165675429Y-62027419D01*
X165675429Y-62027419D02*
X166008762Y-62741704D01*
X166008762Y-62741704D02*
X166342095Y-62027419D01*
X166342095Y-62027419D02*
X166342095Y-63027419D01*
X167389714Y-62932180D02*
X167342095Y-62979800D01*
X167342095Y-62979800D02*
X167199238Y-63027419D01*
X167199238Y-63027419D02*
X167104000Y-63027419D01*
X167104000Y-63027419D02*
X166961143Y-62979800D01*
X166961143Y-62979800D02*
X166865905Y-62884561D01*
X166865905Y-62884561D02*
X166818286Y-62789323D01*
X166818286Y-62789323D02*
X166770667Y-62598847D01*
X166770667Y-62598847D02*
X166770667Y-62455990D01*
X166770667Y-62455990D02*
X166818286Y-62265514D01*
X166818286Y-62265514D02*
X166865905Y-62170276D01*
X166865905Y-62170276D02*
X166961143Y-62075038D01*
X166961143Y-62075038D02*
X167104000Y-62027419D01*
X167104000Y-62027419D02*
X167199238Y-62027419D01*
X167199238Y-62027419D02*
X167342095Y-62075038D01*
X167342095Y-62075038D02*
X167389714Y-62122657D01*
X167723048Y-62027419D02*
X168389714Y-62027419D01*
X168389714Y-62027419D02*
X167961143Y-63027419D01*
X162407884Y-56918609D02*
X162741217Y-56918609D01*
X162884074Y-57442419D02*
X162407884Y-57442419D01*
X162407884Y-57442419D02*
X162407884Y-56442419D01*
X162407884Y-56442419D02*
X162884074Y-56442419D01*
X163312646Y-57442419D02*
X163312646Y-56442419D01*
X163312646Y-56442419D02*
X163884074Y-57442419D01*
X163884074Y-57442419D02*
X163884074Y-56442419D01*
X166432580Y-130270667D02*
X166432580Y-130842095D01*
X165432580Y-130556381D02*
X166432580Y-130556381D01*
X165432580Y-131175429D02*
X166432580Y-131175429D01*
X166432580Y-131175429D02*
X165718295Y-131508762D01*
X165718295Y-131508762D02*
X166432580Y-131842095D01*
X166432580Y-131842095D02*
X165432580Y-131842095D01*
X165527819Y-132889714D02*
X165480200Y-132842095D01*
X165480200Y-132842095D02*
X165432580Y-132699238D01*
X165432580Y-132699238D02*
X165432580Y-132604000D01*
X165432580Y-132604000D02*
X165480200Y-132461143D01*
X165480200Y-132461143D02*
X165575438Y-132365905D01*
X165575438Y-132365905D02*
X165670676Y-132318286D01*
X165670676Y-132318286D02*
X165861152Y-132270667D01*
X165861152Y-132270667D02*
X166004009Y-132270667D01*
X166004009Y-132270667D02*
X166194485Y-132318286D01*
X166194485Y-132318286D02*
X166289723Y-132365905D01*
X166289723Y-132365905D02*
X166384961Y-132461143D01*
X166384961Y-132461143D02*
X166432580Y-132604000D01*
X166432580Y-132604000D02*
X166432580Y-132699238D01*
X166432580Y-132699238D02*
X166384961Y-132842095D01*
X166384961Y-132842095D02*
X166337342Y-132889714D01*
X166099247Y-133746857D02*
X165432580Y-133746857D01*
X166480200Y-133508762D02*
X165765914Y-133270667D01*
X165765914Y-133270667D02*
X165765914Y-133889714D01*
X171541390Y-127907884D02*
X171541390Y-128241217D01*
X171017580Y-128384074D02*
X171017580Y-127907884D01*
X171017580Y-127907884D02*
X172017580Y-127907884D01*
X172017580Y-127907884D02*
X172017580Y-128384074D01*
X171017580Y-128812646D02*
X172017580Y-128812646D01*
X172017580Y-128812646D02*
X171017580Y-129384074D01*
X171017580Y-129384074D02*
X172017580Y-129384074D01*
D10*
X159239048Y-154374819D02*
X159239048Y-153374819D01*
X159239048Y-153374819D02*
X159572381Y-154089104D01*
X159572381Y-154089104D02*
X159905714Y-153374819D01*
X159905714Y-153374819D02*
X159905714Y-154374819D01*
X160381905Y-154374819D02*
X160381905Y-153374819D01*
X160381905Y-153374819D02*
X160715238Y-154089104D01*
X160715238Y-154089104D02*
X161048571Y-153374819D01*
X161048571Y-153374819D02*
X161048571Y-154374819D01*
X161953333Y-153708152D02*
X161953333Y-154374819D01*
X161715238Y-153327200D02*
X161477143Y-154041485D01*
X161477143Y-154041485D02*
X162096190Y-154041485D01*
D11*
X164770667Y-83527419D02*
X165342095Y-83527419D01*
X165056381Y-84527419D02*
X165056381Y-83527419D01*
X165675429Y-84527419D02*
X165675429Y-83527419D01*
X165675429Y-83527419D02*
X166008762Y-84241704D01*
X166008762Y-84241704D02*
X166342095Y-83527419D01*
X166342095Y-83527419D02*
X166342095Y-84527419D01*
X167389714Y-84432180D02*
X167342095Y-84479800D01*
X167342095Y-84479800D02*
X167199238Y-84527419D01*
X167199238Y-84527419D02*
X167104000Y-84527419D01*
X167104000Y-84527419D02*
X166961143Y-84479800D01*
X166961143Y-84479800D02*
X166865905Y-84384561D01*
X166865905Y-84384561D02*
X166818286Y-84289323D01*
X166818286Y-84289323D02*
X166770667Y-84098847D01*
X166770667Y-84098847D02*
X166770667Y-83955990D01*
X166770667Y-83955990D02*
X166818286Y-83765514D01*
X166818286Y-83765514D02*
X166865905Y-83670276D01*
X166865905Y-83670276D02*
X166961143Y-83575038D01*
X166961143Y-83575038D02*
X167104000Y-83527419D01*
X167104000Y-83527419D02*
X167199238Y-83527419D01*
X167199238Y-83527419D02*
X167342095Y-83575038D01*
X167342095Y-83575038D02*
X167389714Y-83622657D01*
X168246857Y-83527419D02*
X168056381Y-83527419D01*
X168056381Y-83527419D02*
X167961143Y-83575038D01*
X167961143Y-83575038D02*
X167913524Y-83622657D01*
X167913524Y-83622657D02*
X167818286Y-83765514D01*
X167818286Y-83765514D02*
X167770667Y-83955990D01*
X167770667Y-83955990D02*
X167770667Y-84336942D01*
X167770667Y-84336942D02*
X167818286Y-84432180D01*
X167818286Y-84432180D02*
X167865905Y-84479800D01*
X167865905Y-84479800D02*
X167961143Y-84527419D01*
X167961143Y-84527419D02*
X168151619Y-84527419D01*
X168151619Y-84527419D02*
X168246857Y-84479800D01*
X168246857Y-84479800D02*
X168294476Y-84432180D01*
X168294476Y-84432180D02*
X168342095Y-84336942D01*
X168342095Y-84336942D02*
X168342095Y-84098847D01*
X168342095Y-84098847D02*
X168294476Y-84003609D01*
X168294476Y-84003609D02*
X168246857Y-83955990D01*
X168246857Y-83955990D02*
X168151619Y-83908371D01*
X168151619Y-83908371D02*
X167961143Y-83908371D01*
X167961143Y-83908371D02*
X167865905Y-83955990D01*
X167865905Y-83955990D02*
X167818286Y-84003609D01*
X167818286Y-84003609D02*
X167770667Y-84098847D01*
X162407884Y-78418609D02*
X162741217Y-78418609D01*
X162884074Y-78942419D02*
X162407884Y-78942419D01*
X162407884Y-78942419D02*
X162407884Y-77942419D01*
X162407884Y-77942419D02*
X162884074Y-77942419D01*
X163312646Y-78942419D02*
X163312646Y-77942419D01*
X163312646Y-77942419D02*
X163884074Y-78942419D01*
X163884074Y-78942419D02*
X163884074Y-77942419D01*
D10*
X138739048Y-154374819D02*
X138739048Y-153374819D01*
X138739048Y-153374819D02*
X139072381Y-154089104D01*
X139072381Y-154089104D02*
X139405714Y-153374819D01*
X139405714Y-153374819D02*
X139405714Y-154374819D01*
X139881905Y-154374819D02*
X139881905Y-153374819D01*
X139881905Y-153374819D02*
X140215238Y-154089104D01*
X140215238Y-154089104D02*
X140548571Y-153374819D01*
X140548571Y-153374819D02*
X140548571Y-154374819D01*
X140929524Y-153374819D02*
X141548571Y-153374819D01*
X141548571Y-153374819D02*
X141215238Y-153755771D01*
X141215238Y-153755771D02*
X141358095Y-153755771D01*
X141358095Y-153755771D02*
X141453333Y-153803390D01*
X141453333Y-153803390D02*
X141500952Y-153851009D01*
X141500952Y-153851009D02*
X141548571Y-153946247D01*
X141548571Y-153946247D02*
X141548571Y-154184342D01*
X141548571Y-154184342D02*
X141500952Y-154279580D01*
X141500952Y-154279580D02*
X141453333Y-154327200D01*
X141453333Y-154327200D02*
X141358095Y-154374819D01*
X141358095Y-154374819D02*
X141072381Y-154374819D01*
X141072381Y-154374819D02*
X140977143Y-154327200D01*
X140977143Y-154327200D02*
X140929524Y-154279580D01*
X97619048Y-154374819D02*
X97619048Y-153374819D01*
X97619048Y-153374819D02*
X97952381Y-154089104D01*
X97952381Y-154089104D02*
X98285714Y-153374819D01*
X98285714Y-153374819D02*
X98285714Y-154374819D01*
X98761905Y-154374819D02*
X98761905Y-153374819D01*
X98761905Y-153374819D02*
X99095238Y-154089104D01*
X99095238Y-154089104D02*
X99428571Y-153374819D01*
X99428571Y-153374819D02*
X99428571Y-154374819D01*
X100428571Y-154374819D02*
X99857143Y-154374819D01*
X100142857Y-154374819D02*
X100142857Y-153374819D01*
X100142857Y-153374819D02*
X100047619Y-153517676D01*
X100047619Y-153517676D02*
X99952381Y-153612914D01*
X99952381Y-153612914D02*
X99857143Y-153660533D01*
X176102319Y-129719285D02*
X175102319Y-129719285D01*
X175102319Y-129719285D02*
X175102319Y-129338333D01*
X175102319Y-129338333D02*
X175149938Y-129243095D01*
X175149938Y-129243095D02*
X175197557Y-129195476D01*
X175197557Y-129195476D02*
X175292795Y-129147857D01*
X175292795Y-129147857D02*
X175435652Y-129147857D01*
X175435652Y-129147857D02*
X175530890Y-129195476D01*
X175530890Y-129195476D02*
X175578509Y-129243095D01*
X175578509Y-129243095D02*
X175626128Y-129338333D01*
X175626128Y-129338333D02*
X175626128Y-129719285D01*
X176054700Y-128766904D02*
X176102319Y-128624047D01*
X176102319Y-128624047D02*
X176102319Y-128385952D01*
X176102319Y-128385952D02*
X176054700Y-128290714D01*
X176054700Y-128290714D02*
X176007080Y-128243095D01*
X176007080Y-128243095D02*
X175911842Y-128195476D01*
X175911842Y-128195476D02*
X175816604Y-128195476D01*
X175816604Y-128195476D02*
X175721366Y-128243095D01*
X175721366Y-128243095D02*
X175673747Y-128290714D01*
X175673747Y-128290714D02*
X175626128Y-128385952D01*
X175626128Y-128385952D02*
X175578509Y-128576428D01*
X175578509Y-128576428D02*
X175530890Y-128671666D01*
X175530890Y-128671666D02*
X175483271Y-128719285D01*
X175483271Y-128719285D02*
X175388033Y-128766904D01*
X175388033Y-128766904D02*
X175292795Y-128766904D01*
X175292795Y-128766904D02*
X175197557Y-128719285D01*
X175197557Y-128719285D02*
X175149938Y-128671666D01*
X175149938Y-128671666D02*
X175102319Y-128576428D01*
X175102319Y-128576428D02*
X175102319Y-128338333D01*
X175102319Y-128338333D02*
X175149938Y-128195476D01*
X176102319Y-127243095D02*
X176102319Y-127814523D01*
X176102319Y-127528809D02*
X175102319Y-127528809D01*
X175102319Y-127528809D02*
X175245176Y-127624047D01*
X175245176Y-127624047D02*
X175340414Y-127719285D01*
X175340414Y-127719285D02*
X175388033Y-127814523D01*
D12*
%TO.C,MM6*%
X176080000Y-76340000D02*
X176080000Y-78700000D01*
X176080000Y-79300000D02*
X176080000Y-96900000D01*
X176800000Y-76340000D02*
X176800000Y-96900000D01*
X179000000Y-76340000D02*
X179000000Y-96900000D01*
X184800000Y-76340000D02*
X184800000Y-96900000D01*
X186050000Y-77750000D02*
X186050000Y-80250000D01*
X186050000Y-82830000D02*
X186050000Y-85330000D01*
X186050000Y-87910000D02*
X186050000Y-90410000D01*
X186050000Y-92990000D02*
X186050000Y-95490000D01*
X186550000Y-77750000D02*
X186050000Y-77750000D01*
X186550000Y-77750000D02*
X186550000Y-80250000D01*
X186550000Y-80250000D02*
X186050000Y-80250000D01*
X186550000Y-82830000D02*
X186050000Y-82830000D01*
X186550000Y-82830000D02*
X186550000Y-85330000D01*
X186550000Y-85330000D02*
X186050000Y-85330000D01*
X186550000Y-87910000D02*
X186050000Y-87910000D01*
X186550000Y-87910000D02*
X186550000Y-90410000D01*
X186550000Y-90410000D02*
X186050000Y-90410000D01*
X186550000Y-92990000D02*
X186050000Y-92990000D01*
X186550000Y-92990000D02*
X186550000Y-95490000D01*
X186550000Y-95490000D02*
X186050000Y-95490000D01*
X186920000Y-76340000D02*
X176080000Y-76340000D01*
X186920000Y-76340000D02*
X186920000Y-96900000D01*
X186920000Y-96900000D02*
X176080000Y-96900000D01*
X176080000Y-79000000D02*
X175470000Y-79440000D01*
X175470000Y-78560000D01*
X176080000Y-79000000D01*
G36*
X176080000Y-79000000D02*
G01*
X175470000Y-79440000D01*
X175470000Y-78560000D01*
X176080000Y-79000000D01*
G37*
D13*
%TO.C,U1*%
X88370000Y-103120000D02*
X88370000Y-25620000D01*
X89870000Y-24120000D02*
X156870000Y-24120000D01*
X90390000Y-54590000D02*
X90390000Y-102850000D01*
X90390000Y-102850000D02*
X95390000Y-102850000D01*
X95390000Y-54590000D02*
X90390000Y-54590000D01*
X95390000Y-102850000D02*
X95390000Y-54590000D01*
X97990000Y-64500000D02*
X97990000Y-85320000D01*
X97990000Y-85320000D02*
X100490000Y-85320000D01*
X97990000Y-87360000D02*
X97990000Y-103100000D01*
X97990000Y-103100000D02*
X100490000Y-103100000D01*
X99370000Y-104620000D02*
X89870000Y-104620000D01*
X100490000Y-64500000D02*
X97990000Y-64500000D01*
X100490000Y-85320000D02*
X100490000Y-64500000D01*
X100490000Y-87360000D02*
X97990000Y-87360000D01*
X100490000Y-103100000D02*
X100490000Y-87360000D01*
X101370000Y-106620000D02*
X99370000Y-104620000D01*
X134370000Y-106620000D02*
X101370000Y-106620000D01*
X136370000Y-104620000D02*
X134370000Y-106620000D01*
X146250000Y-55360000D02*
X146250000Y-81260000D01*
X146250000Y-81260000D02*
X148750000Y-81260000D01*
X146250000Y-82280000D02*
X146250000Y-103100000D01*
X146250000Y-103100000D02*
X148750000Y-103100000D01*
X148750000Y-55360000D02*
X146250000Y-55360000D01*
X148750000Y-81260000D02*
X148750000Y-55360000D01*
X148750000Y-82280000D02*
X146250000Y-82280000D01*
X148750000Y-103100000D02*
X148750000Y-82280000D01*
X151350000Y-54590000D02*
X151350000Y-102850000D01*
X151350000Y-102850000D02*
X156350000Y-102850000D01*
X156350000Y-54590000D02*
X151350000Y-54590000D01*
X156350000Y-102850000D02*
X156350000Y-54590000D01*
X156870000Y-104620000D02*
X136370000Y-104620000D01*
X158370000Y-25620000D02*
X158370000Y-103120000D01*
X88370000Y-25620000D02*
G75*
G02*
X89870000Y-24120000I1500001J-1D01*
G01*
X89870000Y-104620000D02*
G75*
G02*
X88370000Y-103120000I1J1500001D01*
G01*
X156870000Y-24120000D02*
G75*
G02*
X158370000Y-25620000I0J-1500000D01*
G01*
X158370000Y-103120000D02*
G75*
G02*
X156870000Y-104620000I-1500000J0D01*
G01*
D14*
X89970000Y-55860000D02*
G75*
G02*
X89770000Y-55860000I-100000J0D01*
G01*
X89770000Y-55860000D02*
G75*
G02*
X89970000Y-55860000I100000J0D01*
G01*
X97590000Y-66020000D02*
G75*
G02*
X97390000Y-66020000I-100000J0D01*
G01*
X97390000Y-66020000D02*
G75*
G02*
X97590000Y-66020000I100000J0D01*
G01*
X97590000Y-88880000D02*
G75*
G02*
X97390000Y-88880000I-100000J0D01*
G01*
X97390000Y-88880000D02*
G75*
G02*
X97590000Y-88880000I100000J0D01*
G01*
X149350000Y-79740000D02*
G75*
G02*
X149150000Y-79740000I-100000J0D01*
G01*
X149150000Y-79740000D02*
G75*
G02*
X149350000Y-79740000I100000J0D01*
G01*
X149350000Y-101580000D02*
G75*
G02*
X149150000Y-101580000I-100000J0D01*
G01*
X149150000Y-101580000D02*
G75*
G02*
X149350000Y-101580000I100000J0D01*
G01*
X150930000Y-55860000D02*
G75*
G02*
X150730000Y-55860000I-100000J0D01*
G01*
X150730000Y-55860000D02*
G75*
G02*
X150930000Y-55860000I100000J0D01*
G01*
%TO.C,TMC2*%
D11*
X130200000Y-124850000D02*
X109800000Y-124850000D01*
X109800000Y-140150000D01*
X130200000Y-140150000D01*
X130200000Y-124850000D01*
D12*
%TO.C,MM2*%
X109340000Y-152920000D02*
X109340000Y-142080000D01*
X110750000Y-152550000D02*
X110750000Y-152050000D01*
X113250000Y-152050000D02*
X110750000Y-152050000D01*
X113250000Y-152550000D02*
X110750000Y-152550000D01*
X113250000Y-152550000D02*
X113250000Y-152050000D01*
X115830000Y-152550000D02*
X115830000Y-152050000D01*
X118330000Y-152050000D02*
X115830000Y-152050000D01*
X118330000Y-152550000D02*
X115830000Y-152550000D01*
X118330000Y-152550000D02*
X118330000Y-152050000D01*
X120910000Y-152550000D02*
X120910000Y-152050000D01*
X123410000Y-152050000D02*
X120910000Y-152050000D01*
X123410000Y-152550000D02*
X120910000Y-152550000D01*
X123410000Y-152550000D02*
X123410000Y-152050000D01*
X125990000Y-152550000D02*
X125990000Y-152050000D01*
X126940000Y-142080000D02*
X109340000Y-142080000D01*
X128490000Y-152050000D02*
X125990000Y-152050000D01*
X128490000Y-152550000D02*
X125990000Y-152550000D01*
X128490000Y-152550000D02*
X128490000Y-152050000D01*
X129900000Y-142080000D02*
X127540000Y-142080000D01*
X129900000Y-142800000D02*
X109340000Y-142800000D01*
X129900000Y-145000000D02*
X109340000Y-145000000D01*
X129900000Y-150800000D02*
X109340000Y-150800000D01*
X129900000Y-152920000D02*
X109340000Y-152920000D01*
X129900000Y-152920000D02*
X129900000Y-142080000D01*
X127240000Y-142080000D02*
X126800000Y-141470000D01*
X127680000Y-141470000D01*
X127240000Y-142080000D01*
G36*
X127240000Y-142080000D02*
G01*
X126800000Y-141470000D01*
X127680000Y-141470000D01*
X127240000Y-142080000D01*
G37*
%TO.C,J1*%
X88480000Y-114860000D02*
X95220000Y-114860000D01*
X88480000Y-116200000D02*
X88480000Y-114860000D01*
X88480000Y-123220000D02*
X88480000Y-116800000D01*
X89400000Y-114860000D02*
X89400000Y-123220000D01*
X90400000Y-114860000D02*
X90400000Y-123220000D01*
X93500000Y-114860000D02*
X93500000Y-123220000D01*
X95220000Y-114860000D02*
X95220000Y-123220000D01*
X95220000Y-123220000D02*
X88480000Y-123220000D01*
X88480000Y-116500000D02*
X87870000Y-116940000D01*
X87870000Y-116060000D01*
X88480000Y-116500000D01*
G36*
X88480000Y-116500000D02*
G01*
X87870000Y-116940000D01*
X87870000Y-116060000D01*
X88480000Y-116500000D01*
G37*
%TO.C,TMC1*%
D11*
X109120000Y-124850000D02*
X88720000Y-124850000D01*
X88720000Y-140150000D01*
X109120000Y-140150000D01*
X109120000Y-124850000D01*
D12*
%TO.C,MM5*%
X176080000Y-96840000D02*
X176080000Y-99200000D01*
X176080000Y-99800000D02*
X176080000Y-117400000D01*
X176800000Y-96840000D02*
X176800000Y-117400000D01*
X179000000Y-96840000D02*
X179000000Y-117400000D01*
X184800000Y-96840000D02*
X184800000Y-117400000D01*
X186050000Y-98250000D02*
X186050000Y-100750000D01*
X186050000Y-103330000D02*
X186050000Y-105830000D01*
X186050000Y-108410000D02*
X186050000Y-110910000D01*
X186050000Y-113490000D02*
X186050000Y-115990000D01*
X186550000Y-98250000D02*
X186050000Y-98250000D01*
X186550000Y-98250000D02*
X186550000Y-100750000D01*
X186550000Y-100750000D02*
X186050000Y-100750000D01*
X186550000Y-103330000D02*
X186050000Y-103330000D01*
X186550000Y-103330000D02*
X186550000Y-105830000D01*
X186550000Y-105830000D02*
X186050000Y-105830000D01*
X186550000Y-108410000D02*
X186050000Y-108410000D01*
X186550000Y-108410000D02*
X186550000Y-110910000D01*
X186550000Y-110910000D02*
X186050000Y-110910000D01*
X186550000Y-113490000D02*
X186050000Y-113490000D01*
X186550000Y-113490000D02*
X186550000Y-115990000D01*
X186550000Y-115990000D02*
X186050000Y-115990000D01*
X186920000Y-96840000D02*
X176080000Y-96840000D01*
X186920000Y-96840000D02*
X186920000Y-117400000D01*
X186920000Y-117400000D02*
X176080000Y-117400000D01*
X176080000Y-99500000D02*
X175470000Y-99940000D01*
X175470000Y-99060000D01*
X176080000Y-99500000D01*
G36*
X176080000Y-99500000D02*
G01*
X175470000Y-99940000D01*
X175470000Y-99060000D01*
X176080000Y-99500000D01*
G37*
%TO.C,MM7*%
X176080000Y-55600000D02*
X176080000Y-57960000D01*
X176080000Y-58560000D02*
X176080000Y-76160000D01*
X176800000Y-55600000D02*
X176800000Y-76160000D01*
X179000000Y-55600000D02*
X179000000Y-76160000D01*
X184800000Y-55600000D02*
X184800000Y-76160000D01*
X186050000Y-57010000D02*
X186050000Y-59510000D01*
X186050000Y-62090000D02*
X186050000Y-64590000D01*
X186050000Y-67170000D02*
X186050000Y-69670000D01*
X186050000Y-72250000D02*
X186050000Y-74750000D01*
X186550000Y-57010000D02*
X186050000Y-57010000D01*
X186550000Y-57010000D02*
X186550000Y-59510000D01*
X186550000Y-59510000D02*
X186050000Y-59510000D01*
X186550000Y-62090000D02*
X186050000Y-62090000D01*
X186550000Y-62090000D02*
X186550000Y-64590000D01*
X186550000Y-64590000D02*
X186050000Y-64590000D01*
X186550000Y-67170000D02*
X186050000Y-67170000D01*
X186550000Y-67170000D02*
X186550000Y-69670000D01*
X186550000Y-69670000D02*
X186050000Y-69670000D01*
X186550000Y-72250000D02*
X186050000Y-72250000D01*
X186550000Y-72250000D02*
X186550000Y-74750000D01*
X186550000Y-74750000D02*
X186050000Y-74750000D01*
X186920000Y-55600000D02*
X176080000Y-55600000D01*
X186920000Y-55600000D02*
X186920000Y-76160000D01*
X186920000Y-76160000D02*
X176080000Y-76160000D01*
X176080000Y-58260000D02*
X175470000Y-58700000D01*
X175470000Y-57820000D01*
X176080000Y-58260000D01*
G36*
X176080000Y-58260000D02*
G01*
X175470000Y-58700000D01*
X175470000Y-57820000D01*
X176080000Y-58260000D01*
G37*
%TO.C,TMC3*%
D11*
X151510000Y-124746000D02*
X131110000Y-124746000D01*
X131110000Y-140046000D01*
X151510000Y-140046000D01*
X151510000Y-124746000D01*
%TO.C,TMC5*%
X159454000Y-98990000D02*
X174754000Y-98990000D01*
X174754000Y-119390000D01*
X159454000Y-119390000D01*
X159454000Y-98990000D01*
%TO.C,TMC7*%
X158954000Y-55450000D02*
X174254000Y-55450000D01*
X174254000Y-75850000D01*
X158954000Y-75850000D01*
X158954000Y-55450000D01*
%TO.C,TMC4*%
X173010000Y-124454000D02*
X152610000Y-124454000D01*
X152610000Y-139754000D01*
X173010000Y-139754000D01*
X173010000Y-124454000D01*
D12*
%TO.C,MM4*%
X150340000Y-152920000D02*
X150340000Y-142080000D01*
X151750000Y-152550000D02*
X151750000Y-152050000D01*
X154250000Y-152050000D02*
X151750000Y-152050000D01*
X154250000Y-152550000D02*
X151750000Y-152550000D01*
X154250000Y-152550000D02*
X154250000Y-152050000D01*
X156830000Y-152550000D02*
X156830000Y-152050000D01*
X159330000Y-152050000D02*
X156830000Y-152050000D01*
X159330000Y-152550000D02*
X156830000Y-152550000D01*
X159330000Y-152550000D02*
X159330000Y-152050000D01*
X161910000Y-152550000D02*
X161910000Y-152050000D01*
X164410000Y-152050000D02*
X161910000Y-152050000D01*
X164410000Y-152550000D02*
X161910000Y-152550000D01*
X164410000Y-152550000D02*
X164410000Y-152050000D01*
X166990000Y-152550000D02*
X166990000Y-152050000D01*
X167940000Y-142080000D02*
X150340000Y-142080000D01*
X169490000Y-152050000D02*
X166990000Y-152050000D01*
X169490000Y-152550000D02*
X166990000Y-152550000D01*
X169490000Y-152550000D02*
X169490000Y-152050000D01*
X170900000Y-142080000D02*
X168540000Y-142080000D01*
X170900000Y-142800000D02*
X150340000Y-142800000D01*
X170900000Y-145000000D02*
X150340000Y-145000000D01*
X170900000Y-150800000D02*
X150340000Y-150800000D01*
X170900000Y-152920000D02*
X150340000Y-152920000D01*
X170900000Y-152920000D02*
X170900000Y-142080000D01*
X168240000Y-142080000D02*
X167800000Y-141470000D01*
X168680000Y-141470000D01*
X168240000Y-142080000D01*
G36*
X168240000Y-142080000D02*
G01*
X167800000Y-141470000D01*
X168680000Y-141470000D01*
X168240000Y-142080000D01*
G37*
%TO.C,TMC6*%
D11*
X158954000Y-76950000D02*
X174254000Y-76950000D01*
X174254000Y-97350000D01*
X158954000Y-97350000D01*
X158954000Y-76950000D01*
D12*
%TO.C,Encoder_MUX_VIO1*%
X119800000Y-117665000D02*
X119800000Y-120425000D01*
X142770000Y-117665000D02*
X119800000Y-117665000D01*
X142770000Y-117665000D02*
X142770000Y-120425000D01*
X142770000Y-120425000D02*
X119800000Y-120425000D01*
X144040000Y-117665000D02*
X145420000Y-117665000D01*
X145420000Y-117665000D02*
X145420000Y-119045000D01*
%TO.C,MM3*%
X129840000Y-152920000D02*
X129840000Y-142080000D01*
X131250000Y-152550000D02*
X131250000Y-152050000D01*
X133750000Y-152050000D02*
X131250000Y-152050000D01*
X133750000Y-152550000D02*
X131250000Y-152550000D01*
X133750000Y-152550000D02*
X133750000Y-152050000D01*
X136330000Y-152550000D02*
X136330000Y-152050000D01*
X138830000Y-152050000D02*
X136330000Y-152050000D01*
X138830000Y-152550000D02*
X136330000Y-152550000D01*
X138830000Y-152550000D02*
X138830000Y-152050000D01*
X141410000Y-152550000D02*
X141410000Y-152050000D01*
X143910000Y-152050000D02*
X141410000Y-152050000D01*
X143910000Y-152550000D02*
X141410000Y-152550000D01*
X143910000Y-152550000D02*
X143910000Y-152050000D01*
X146490000Y-152550000D02*
X146490000Y-152050000D01*
X147440000Y-142080000D02*
X129840000Y-142080000D01*
X148990000Y-152050000D02*
X146490000Y-152050000D01*
X148990000Y-152550000D02*
X146490000Y-152550000D01*
X148990000Y-152550000D02*
X148990000Y-152050000D01*
X150400000Y-142080000D02*
X148040000Y-142080000D01*
X150400000Y-142800000D02*
X129840000Y-142800000D01*
X150400000Y-145000000D02*
X129840000Y-145000000D01*
X150400000Y-150800000D02*
X129840000Y-150800000D01*
X150400000Y-152920000D02*
X129840000Y-152920000D01*
X150400000Y-152920000D02*
X150400000Y-142080000D01*
X147740000Y-142080000D02*
X147300000Y-141470000D01*
X148180000Y-141470000D01*
X147740000Y-142080000D01*
G36*
X147740000Y-142080000D02*
G01*
X147300000Y-141470000D01*
X148180000Y-141470000D01*
X147740000Y-142080000D01*
G37*
%TO.C,MM1*%
X88720000Y-152920000D02*
X88720000Y-142080000D01*
X90130000Y-152550000D02*
X90130000Y-152050000D01*
X92630000Y-152050000D02*
X90130000Y-152050000D01*
X92630000Y-152550000D02*
X90130000Y-152550000D01*
X92630000Y-152550000D02*
X92630000Y-152050000D01*
X95210000Y-152550000D02*
X95210000Y-152050000D01*
X97710000Y-152050000D02*
X95210000Y-152050000D01*
X97710000Y-152550000D02*
X95210000Y-152550000D01*
X97710000Y-152550000D02*
X97710000Y-152050000D01*
X100290000Y-152550000D02*
X100290000Y-152050000D01*
X102790000Y-152050000D02*
X100290000Y-152050000D01*
X102790000Y-152550000D02*
X100290000Y-152550000D01*
X102790000Y-152550000D02*
X102790000Y-152050000D01*
X105370000Y-152550000D02*
X105370000Y-152050000D01*
X106320000Y-142080000D02*
X88720000Y-142080000D01*
X107870000Y-152050000D02*
X105370000Y-152050000D01*
X107870000Y-152550000D02*
X105370000Y-152550000D01*
X107870000Y-152550000D02*
X107870000Y-152050000D01*
X109280000Y-142080000D02*
X106920000Y-142080000D01*
X109280000Y-142800000D02*
X88720000Y-142800000D01*
X109280000Y-145000000D02*
X88720000Y-145000000D01*
X109280000Y-150800000D02*
X88720000Y-150800000D01*
X109280000Y-152920000D02*
X88720000Y-152920000D01*
X109280000Y-152920000D02*
X109280000Y-142080000D01*
X106620000Y-142080000D02*
X106180000Y-141470000D01*
X107060000Y-141470000D01*
X106620000Y-142080000D01*
G36*
X106620000Y-142080000D02*
G01*
X106180000Y-141470000D01*
X107060000Y-141470000D01*
X106620000Y-142080000D01*
G37*
%TO.C,PS1*%
X176647500Y-123305000D02*
X188087500Y-123305000D01*
X176647500Y-133705000D02*
X176647500Y-123305000D01*
X176647500Y-133705000D02*
X188087500Y-133705000D01*
X178767500Y-133705000D02*
X178767500Y-123305000D01*
X184967500Y-133705000D02*
X184967500Y-123305000D01*
X187467500Y-133705000D02*
X187467500Y-123305000D01*
X188087500Y-130745000D02*
X188087500Y-123305000D01*
X188087500Y-133705000D02*
X188087500Y-131345000D01*
X188697500Y-131485000D02*
X188087500Y-131045000D01*
X188697500Y-130605000D01*
X188697500Y-131485000D01*
G36*
X188697500Y-131485000D02*
G01*
X188087500Y-131045000D01*
X188697500Y-130605000D01*
X188697500Y-131485000D01*
G37*
%TO.C,Encoder_MUX_GND1*%
X119350000Y-109170000D02*
X119350000Y-111830000D01*
X142270000Y-109170000D02*
X119350000Y-109170000D01*
X142270000Y-109170000D02*
X142270000Y-111830000D01*
X142270000Y-111830000D02*
X119350000Y-111830000D01*
X144870000Y-110500000D02*
X144870000Y-111830000D01*
X144870000Y-111830000D02*
X143540000Y-111830000D01*
%TD*%
M02*
