%TF.GenerationSoftware,KiCad,Pcbnew,9.0.5*%
%TF.CreationDate,2025-10-28T11:21:23+01:00*%
%TF.ProjectId,wokringv1ar,776f6b72-696e-4677-9631-61722e6b6963,rev?*%
%TF.SameCoordinates,Original*%
%TF.FileFunction,Legend,Bot*%
%TF.FilePolarity,Positive*%
%FSLAX46Y46*%
G04 Gerber Fmt 4.6, Leading zero omitted, Abs format (unit mm)*
G04 Created by KiCad (PCBNEW 9.0.5) date 2025-10-28 11:21:23*
%MOMM*%
%LPD*%
G01*
G04 APERTURE LIST*
%ADD10C,0.150000*%
%ADD11C,0.120000*%
G04 APERTURE END LIST*
D10*
X115066428Y-69084819D02*
X114875952Y-69084819D01*
X114875952Y-69084819D02*
X114780714Y-69132438D01*
X114780714Y-69132438D02*
X114685476Y-69227676D01*
X114685476Y-69227676D02*
X114637857Y-69418152D01*
X114637857Y-69418152D02*
X114637857Y-69751485D01*
X114637857Y-69751485D02*
X114685476Y-69941961D01*
X114685476Y-69941961D02*
X114780714Y-70037200D01*
X114780714Y-70037200D02*
X114875952Y-70084819D01*
X114875952Y-70084819D02*
X115066428Y-70084819D01*
X115066428Y-70084819D02*
X115161666Y-70037200D01*
X115161666Y-70037200D02*
X115256904Y-69941961D01*
X115256904Y-69941961D02*
X115304523Y-69751485D01*
X115304523Y-69751485D02*
X115304523Y-69418152D01*
X115304523Y-69418152D02*
X115256904Y-69227676D01*
X115256904Y-69227676D02*
X115161666Y-69132438D01*
X115161666Y-69132438D02*
X115066428Y-69084819D01*
X113637857Y-69989580D02*
X113685476Y-70037200D01*
X113685476Y-70037200D02*
X113828333Y-70084819D01*
X113828333Y-70084819D02*
X113923571Y-70084819D01*
X113923571Y-70084819D02*
X114066428Y-70037200D01*
X114066428Y-70037200D02*
X114161666Y-69941961D01*
X114161666Y-69941961D02*
X114209285Y-69846723D01*
X114209285Y-69846723D02*
X114256904Y-69656247D01*
X114256904Y-69656247D02*
X114256904Y-69513390D01*
X114256904Y-69513390D02*
X114209285Y-69322914D01*
X114209285Y-69322914D02*
X114161666Y-69227676D01*
X114161666Y-69227676D02*
X114066428Y-69132438D01*
X114066428Y-69132438D02*
X113923571Y-69084819D01*
X113923571Y-69084819D02*
X113828333Y-69084819D01*
X113828333Y-69084819D02*
X113685476Y-69132438D01*
X113685476Y-69132438D02*
X113637857Y-69180057D01*
X112685476Y-70084819D02*
X113256904Y-70084819D01*
X112971190Y-70084819D02*
X112971190Y-69084819D01*
X112971190Y-69084819D02*
X113066428Y-69227676D01*
X113066428Y-69227676D02*
X113161666Y-69322914D01*
X113161666Y-69322914D02*
X113256904Y-69370533D01*
X114166666Y-78584819D02*
X114499999Y-78108628D01*
X114738094Y-78584819D02*
X114738094Y-77584819D01*
X114738094Y-77584819D02*
X114357142Y-77584819D01*
X114357142Y-77584819D02*
X114261904Y-77632438D01*
X114261904Y-77632438D02*
X114214285Y-77680057D01*
X114214285Y-77680057D02*
X114166666Y-77775295D01*
X114166666Y-77775295D02*
X114166666Y-77918152D01*
X114166666Y-77918152D02*
X114214285Y-78013390D01*
X114214285Y-78013390D02*
X114261904Y-78061009D01*
X114261904Y-78061009D02*
X114357142Y-78108628D01*
X114357142Y-78108628D02*
X114738094Y-78108628D01*
X113309523Y-77918152D02*
X113309523Y-78584819D01*
X113547618Y-77537200D02*
X113785713Y-78251485D01*
X113785713Y-78251485D02*
X113166666Y-78251485D01*
X115066428Y-85584819D02*
X114875952Y-85584819D01*
X114875952Y-85584819D02*
X114780714Y-85632438D01*
X114780714Y-85632438D02*
X114685476Y-85727676D01*
X114685476Y-85727676D02*
X114637857Y-85918152D01*
X114637857Y-85918152D02*
X114637857Y-86251485D01*
X114637857Y-86251485D02*
X114685476Y-86441961D01*
X114685476Y-86441961D02*
X114780714Y-86537200D01*
X114780714Y-86537200D02*
X114875952Y-86584819D01*
X114875952Y-86584819D02*
X115066428Y-86584819D01*
X115066428Y-86584819D02*
X115161666Y-86537200D01*
X115161666Y-86537200D02*
X115256904Y-86441961D01*
X115256904Y-86441961D02*
X115304523Y-86251485D01*
X115304523Y-86251485D02*
X115304523Y-85918152D01*
X115304523Y-85918152D02*
X115256904Y-85727676D01*
X115256904Y-85727676D02*
X115161666Y-85632438D01*
X115161666Y-85632438D02*
X115066428Y-85584819D01*
X113637857Y-86489580D02*
X113685476Y-86537200D01*
X113685476Y-86537200D02*
X113828333Y-86584819D01*
X113828333Y-86584819D02*
X113923571Y-86584819D01*
X113923571Y-86584819D02*
X114066428Y-86537200D01*
X114066428Y-86537200D02*
X114161666Y-86441961D01*
X114161666Y-86441961D02*
X114209285Y-86346723D01*
X114209285Y-86346723D02*
X114256904Y-86156247D01*
X114256904Y-86156247D02*
X114256904Y-86013390D01*
X114256904Y-86013390D02*
X114209285Y-85822914D01*
X114209285Y-85822914D02*
X114161666Y-85727676D01*
X114161666Y-85727676D02*
X114066428Y-85632438D01*
X114066428Y-85632438D02*
X113923571Y-85584819D01*
X113923571Y-85584819D02*
X113828333Y-85584819D01*
X113828333Y-85584819D02*
X113685476Y-85632438D01*
X113685476Y-85632438D02*
X113637857Y-85680057D01*
X113256904Y-85680057D02*
X113209285Y-85632438D01*
X113209285Y-85632438D02*
X113114047Y-85584819D01*
X113114047Y-85584819D02*
X112875952Y-85584819D01*
X112875952Y-85584819D02*
X112780714Y-85632438D01*
X112780714Y-85632438D02*
X112733095Y-85680057D01*
X112733095Y-85680057D02*
X112685476Y-85775295D01*
X112685476Y-85775295D02*
X112685476Y-85870533D01*
X112685476Y-85870533D02*
X112733095Y-86013390D01*
X112733095Y-86013390D02*
X113304523Y-86584819D01*
X113304523Y-86584819D02*
X112685476Y-86584819D01*
X113666666Y-99084819D02*
X113999999Y-98608628D01*
X114238094Y-99084819D02*
X114238094Y-98084819D01*
X114238094Y-98084819D02*
X113857142Y-98084819D01*
X113857142Y-98084819D02*
X113761904Y-98132438D01*
X113761904Y-98132438D02*
X113714285Y-98180057D01*
X113714285Y-98180057D02*
X113666666Y-98275295D01*
X113666666Y-98275295D02*
X113666666Y-98418152D01*
X113666666Y-98418152D02*
X113714285Y-98513390D01*
X113714285Y-98513390D02*
X113761904Y-98561009D01*
X113761904Y-98561009D02*
X113857142Y-98608628D01*
X113857142Y-98608628D02*
X114238094Y-98608628D01*
X113333332Y-98084819D02*
X112714285Y-98084819D01*
X112714285Y-98084819D02*
X113047618Y-98465771D01*
X113047618Y-98465771D02*
X112904761Y-98465771D01*
X112904761Y-98465771D02*
X112809523Y-98513390D01*
X112809523Y-98513390D02*
X112761904Y-98561009D01*
X112761904Y-98561009D02*
X112714285Y-98656247D01*
X112714285Y-98656247D02*
X112714285Y-98894342D01*
X112714285Y-98894342D02*
X112761904Y-98989580D01*
X112761904Y-98989580D02*
X112809523Y-99037200D01*
X112809523Y-99037200D02*
X112904761Y-99084819D01*
X112904761Y-99084819D02*
X113190475Y-99084819D01*
X113190475Y-99084819D02*
X113285713Y-99037200D01*
X113285713Y-99037200D02*
X113333332Y-98989580D01*
X114166666Y-82584819D02*
X114499999Y-82108628D01*
X114738094Y-82584819D02*
X114738094Y-81584819D01*
X114738094Y-81584819D02*
X114357142Y-81584819D01*
X114357142Y-81584819D02*
X114261904Y-81632438D01*
X114261904Y-81632438D02*
X114214285Y-81680057D01*
X114214285Y-81680057D02*
X114166666Y-81775295D01*
X114166666Y-81775295D02*
X114166666Y-81918152D01*
X114166666Y-81918152D02*
X114214285Y-82013390D01*
X114214285Y-82013390D02*
X114261904Y-82061009D01*
X114261904Y-82061009D02*
X114357142Y-82108628D01*
X114357142Y-82108628D02*
X114738094Y-82108628D01*
X113785713Y-81680057D02*
X113738094Y-81632438D01*
X113738094Y-81632438D02*
X113642856Y-81584819D01*
X113642856Y-81584819D02*
X113404761Y-81584819D01*
X113404761Y-81584819D02*
X113309523Y-81632438D01*
X113309523Y-81632438D02*
X113261904Y-81680057D01*
X113261904Y-81680057D02*
X113214285Y-81775295D01*
X113214285Y-81775295D02*
X113214285Y-81870533D01*
X113214285Y-81870533D02*
X113261904Y-82013390D01*
X113261904Y-82013390D02*
X113833332Y-82584819D01*
X113833332Y-82584819D02*
X113214285Y-82584819D01*
X114166666Y-95084819D02*
X114499999Y-94608628D01*
X114738094Y-95084819D02*
X114738094Y-94084819D01*
X114738094Y-94084819D02*
X114357142Y-94084819D01*
X114357142Y-94084819D02*
X114261904Y-94132438D01*
X114261904Y-94132438D02*
X114214285Y-94180057D01*
X114214285Y-94180057D02*
X114166666Y-94275295D01*
X114166666Y-94275295D02*
X114166666Y-94418152D01*
X114166666Y-94418152D02*
X114214285Y-94513390D01*
X114214285Y-94513390D02*
X114261904Y-94561009D01*
X114261904Y-94561009D02*
X114357142Y-94608628D01*
X114357142Y-94608628D02*
X114738094Y-94608628D01*
X113261904Y-94084819D02*
X113738094Y-94084819D01*
X113738094Y-94084819D02*
X113785713Y-94561009D01*
X113785713Y-94561009D02*
X113738094Y-94513390D01*
X113738094Y-94513390D02*
X113642856Y-94465771D01*
X113642856Y-94465771D02*
X113404761Y-94465771D01*
X113404761Y-94465771D02*
X113309523Y-94513390D01*
X113309523Y-94513390D02*
X113261904Y-94561009D01*
X113261904Y-94561009D02*
X113214285Y-94656247D01*
X113214285Y-94656247D02*
X113214285Y-94894342D01*
X113214285Y-94894342D02*
X113261904Y-94989580D01*
X113261904Y-94989580D02*
X113309523Y-95037200D01*
X113309523Y-95037200D02*
X113404761Y-95084819D01*
X113404761Y-95084819D02*
X113642856Y-95084819D01*
X113642856Y-95084819D02*
X113738094Y-95037200D01*
X113738094Y-95037200D02*
X113785713Y-94989580D01*
X114566428Y-101584819D02*
X114375952Y-101584819D01*
X114375952Y-101584819D02*
X114280714Y-101632438D01*
X114280714Y-101632438D02*
X114185476Y-101727676D01*
X114185476Y-101727676D02*
X114137857Y-101918152D01*
X114137857Y-101918152D02*
X114137857Y-102251485D01*
X114137857Y-102251485D02*
X114185476Y-102441961D01*
X114185476Y-102441961D02*
X114280714Y-102537200D01*
X114280714Y-102537200D02*
X114375952Y-102584819D01*
X114375952Y-102584819D02*
X114566428Y-102584819D01*
X114566428Y-102584819D02*
X114661666Y-102537200D01*
X114661666Y-102537200D02*
X114756904Y-102441961D01*
X114756904Y-102441961D02*
X114804523Y-102251485D01*
X114804523Y-102251485D02*
X114804523Y-101918152D01*
X114804523Y-101918152D02*
X114756904Y-101727676D01*
X114756904Y-101727676D02*
X114661666Y-101632438D01*
X114661666Y-101632438D02*
X114566428Y-101584819D01*
X113137857Y-102489580D02*
X113185476Y-102537200D01*
X113185476Y-102537200D02*
X113328333Y-102584819D01*
X113328333Y-102584819D02*
X113423571Y-102584819D01*
X113423571Y-102584819D02*
X113566428Y-102537200D01*
X113566428Y-102537200D02*
X113661666Y-102441961D01*
X113661666Y-102441961D02*
X113709285Y-102346723D01*
X113709285Y-102346723D02*
X113756904Y-102156247D01*
X113756904Y-102156247D02*
X113756904Y-102013390D01*
X113756904Y-102013390D02*
X113709285Y-101822914D01*
X113709285Y-101822914D02*
X113661666Y-101727676D01*
X113661666Y-101727676D02*
X113566428Y-101632438D01*
X113566428Y-101632438D02*
X113423571Y-101584819D01*
X113423571Y-101584819D02*
X113328333Y-101584819D01*
X113328333Y-101584819D02*
X113185476Y-101632438D01*
X113185476Y-101632438D02*
X113137857Y-101680057D01*
X112804523Y-101584819D02*
X112185476Y-101584819D01*
X112185476Y-101584819D02*
X112518809Y-101965771D01*
X112518809Y-101965771D02*
X112375952Y-101965771D01*
X112375952Y-101965771D02*
X112280714Y-102013390D01*
X112280714Y-102013390D02*
X112233095Y-102061009D01*
X112233095Y-102061009D02*
X112185476Y-102156247D01*
X112185476Y-102156247D02*
X112185476Y-102394342D01*
X112185476Y-102394342D02*
X112233095Y-102489580D01*
X112233095Y-102489580D02*
X112280714Y-102537200D01*
X112280714Y-102537200D02*
X112375952Y-102584819D01*
X112375952Y-102584819D02*
X112661666Y-102584819D01*
X112661666Y-102584819D02*
X112756904Y-102537200D01*
X112756904Y-102537200D02*
X112804523Y-102489580D01*
X114166666Y-111084819D02*
X114499999Y-110608628D01*
X114738094Y-111084819D02*
X114738094Y-110084819D01*
X114738094Y-110084819D02*
X114357142Y-110084819D01*
X114357142Y-110084819D02*
X114261904Y-110132438D01*
X114261904Y-110132438D02*
X114214285Y-110180057D01*
X114214285Y-110180057D02*
X114166666Y-110275295D01*
X114166666Y-110275295D02*
X114166666Y-110418152D01*
X114166666Y-110418152D02*
X114214285Y-110513390D01*
X114214285Y-110513390D02*
X114261904Y-110561009D01*
X114261904Y-110561009D02*
X114357142Y-110608628D01*
X114357142Y-110608628D02*
X114738094Y-110608628D01*
X113309523Y-110084819D02*
X113499999Y-110084819D01*
X113499999Y-110084819D02*
X113595237Y-110132438D01*
X113595237Y-110132438D02*
X113642856Y-110180057D01*
X113642856Y-110180057D02*
X113738094Y-110322914D01*
X113738094Y-110322914D02*
X113785713Y-110513390D01*
X113785713Y-110513390D02*
X113785713Y-110894342D01*
X113785713Y-110894342D02*
X113738094Y-110989580D01*
X113738094Y-110989580D02*
X113690475Y-111037200D01*
X113690475Y-111037200D02*
X113595237Y-111084819D01*
X113595237Y-111084819D02*
X113404761Y-111084819D01*
X113404761Y-111084819D02*
X113309523Y-111037200D01*
X113309523Y-111037200D02*
X113261904Y-110989580D01*
X113261904Y-110989580D02*
X113214285Y-110894342D01*
X113214285Y-110894342D02*
X113214285Y-110656247D01*
X113214285Y-110656247D02*
X113261904Y-110561009D01*
X113261904Y-110561009D02*
X113309523Y-110513390D01*
X113309523Y-110513390D02*
X113404761Y-110465771D01*
X113404761Y-110465771D02*
X113595237Y-110465771D01*
X113595237Y-110465771D02*
X113690475Y-110513390D01*
X113690475Y-110513390D02*
X113738094Y-110561009D01*
X113738094Y-110561009D02*
X113785713Y-110656247D01*
X114166666Y-66584819D02*
X114499999Y-66108628D01*
X114738094Y-66584819D02*
X114738094Y-65584819D01*
X114738094Y-65584819D02*
X114357142Y-65584819D01*
X114357142Y-65584819D02*
X114261904Y-65632438D01*
X114261904Y-65632438D02*
X114214285Y-65680057D01*
X114214285Y-65680057D02*
X114166666Y-65775295D01*
X114166666Y-65775295D02*
X114166666Y-65918152D01*
X114166666Y-65918152D02*
X114214285Y-66013390D01*
X114214285Y-66013390D02*
X114261904Y-66061009D01*
X114261904Y-66061009D02*
X114357142Y-66108628D01*
X114357142Y-66108628D02*
X114738094Y-66108628D01*
X113214285Y-66584819D02*
X113785713Y-66584819D01*
X113499999Y-66584819D02*
X113499999Y-65584819D01*
X113499999Y-65584819D02*
X113595237Y-65727676D01*
X113595237Y-65727676D02*
X113690475Y-65822914D01*
X113690475Y-65822914D02*
X113785713Y-65870533D01*
D11*
%TO.C,OC1*%
X111345000Y-70630000D02*
X112995000Y-70630000D01*
X111345000Y-78370000D02*
X111345000Y-70630000D01*
X114995000Y-70630000D02*
X116645000Y-70630000D01*
X116645000Y-70630000D02*
X116645000Y-78370000D01*
X116645000Y-78370000D02*
X111345000Y-78370000D01*
X114995000Y-70630000D02*
G75*
G02*
X112995000Y-70630000I-1000000J0D01*
G01*
%TO.C,R4*%
X110730000Y-79130000D02*
X110730000Y-79460000D01*
X110730000Y-81870000D02*
X110730000Y-81540000D01*
X117270000Y-79130000D02*
X110730000Y-79130000D01*
X117270000Y-79460000D02*
X117270000Y-79130000D01*
X117270000Y-81540000D02*
X117270000Y-81870000D01*
X117270000Y-81870000D02*
X110730000Y-81870000D01*
%TO.C,OC2*%
X111345000Y-87130000D02*
X112995000Y-87130000D01*
X111345000Y-94870000D02*
X111345000Y-87130000D01*
X114995000Y-87130000D02*
X116645000Y-87130000D01*
X116645000Y-87130000D02*
X116645000Y-94870000D01*
X116645000Y-94870000D02*
X111345000Y-94870000D01*
X114995000Y-87130000D02*
G75*
G02*
X112995000Y-87130000I-1000000J0D01*
G01*
%TO.C,R3*%
X110230000Y-99630000D02*
X110230000Y-99960000D01*
X110230000Y-102370000D02*
X110230000Y-102040000D01*
X116770000Y-99630000D02*
X110230000Y-99630000D01*
X116770000Y-99960000D02*
X116770000Y-99630000D01*
X116770000Y-102040000D02*
X116770000Y-102370000D01*
X116770000Y-102370000D02*
X110230000Y-102370000D01*
%TO.C,R2*%
X110730000Y-83130000D02*
X110730000Y-83460000D01*
X110730000Y-85870000D02*
X110730000Y-85540000D01*
X117270000Y-83130000D02*
X110730000Y-83130000D01*
X117270000Y-83460000D02*
X117270000Y-83130000D01*
X117270000Y-85540000D02*
X117270000Y-85870000D01*
X117270000Y-85870000D02*
X110730000Y-85870000D01*
%TO.C,R5*%
X110730000Y-95630000D02*
X110730000Y-95960000D01*
X110730000Y-98370000D02*
X110730000Y-98040000D01*
X117270000Y-95630000D02*
X110730000Y-95630000D01*
X117270000Y-95960000D02*
X117270000Y-95630000D01*
X117270000Y-98040000D02*
X117270000Y-98370000D01*
X117270000Y-98370000D02*
X110730000Y-98370000D01*
%TO.C,OC3*%
X110845000Y-103130000D02*
X112495000Y-103130000D01*
X110845000Y-110870000D02*
X110845000Y-103130000D01*
X114495000Y-103130000D02*
X116145000Y-103130000D01*
X116145000Y-103130000D02*
X116145000Y-110870000D01*
X116145000Y-110870000D02*
X110845000Y-110870000D01*
X114495000Y-103130000D02*
G75*
G02*
X112495000Y-103130000I-1000000J0D01*
G01*
%TO.C,R6*%
X110730000Y-111630000D02*
X110730000Y-111960000D01*
X110730000Y-114370000D02*
X110730000Y-114040000D01*
X117270000Y-111630000D02*
X110730000Y-111630000D01*
X117270000Y-111960000D02*
X117270000Y-111630000D01*
X117270000Y-114040000D02*
X117270000Y-114370000D01*
X117270000Y-114370000D02*
X110730000Y-114370000D01*
%TO.C,R1*%
X110730000Y-67130000D02*
X110730000Y-67460000D01*
X110730000Y-69870000D02*
X110730000Y-69540000D01*
X117270000Y-67130000D02*
X110730000Y-67130000D01*
X117270000Y-67460000D02*
X117270000Y-67130000D01*
X117270000Y-69540000D02*
X117270000Y-69870000D01*
X117270000Y-69870000D02*
X110730000Y-69870000D01*
%TD*%
M02*
