%TF.GenerationSoftware,KiCad,Pcbnew,9.0.5*%
%TF.CreationDate,2025-10-28T11:21:23+01:00*%
%TF.ProjectId,wokringv1ar,776f6b72-696e-4677-9631-61722e6b6963,rev?*%
%TF.SameCoordinates,Original*%
%TF.FileFunction,Copper,L2,Bot*%
%TF.FilePolarity,Positive*%
%FSLAX46Y46*%
G04 Gerber Fmt 4.6, Leading zero omitted, Abs format (unit mm)*
G04 Created by KiCad (PCBNEW 9.0.5) date 2025-10-28 11:21:23*
%MOMM*%
%LPD*%
G01*
G04 APERTURE LIST*
G04 Aperture macros list*
%AMRoundRect*
0 Rectangle with rounded corners*
0 $1 Rounding radius*
0 $2 $3 $4 $5 $6 $7 $8 $9 X,Y pos of 4 corners*
0 Add a 4 corners polygon primitive as box body*
4,1,4,$2,$3,$4,$5,$6,$7,$8,$9,$2,$3,0*
0 Add four circle primitives for the rounded corners*
1,1,$1+$1,$2,$3*
1,1,$1+$1,$4,$5*
1,1,$1+$1,$6,$7*
1,1,$1+$1,$8,$9*
0 Add four rect primitives between the rounded corners*
20,1,$1+$1,$2,$3,$4,$5,0*
20,1,$1+$1,$4,$5,$6,$7,0*
20,1,$1+$1,$6,$7,$8,$9,0*
20,1,$1+$1,$8,$9,$2,$3,0*%
G04 Aperture macros list end*
%TA.AperFunction,ComponentPad*%
%ADD10RoundRect,0.250000X-1.000000X1.000000X-1.000000X-1.000000X1.000000X-1.000000X1.000000X1.000000X0*%
%TD*%
%TA.AperFunction,ComponentPad*%
%ADD11C,2.500000*%
%TD*%
%TA.AperFunction,ComponentPad*%
%ADD12R,1.605000X1.605000*%
%TD*%
%TA.AperFunction,ComponentPad*%
%ADD13C,1.605000*%
%TD*%
%TA.AperFunction,ComponentPad*%
%ADD14R,1.530000X1.530000*%
%TD*%
%TA.AperFunction,ComponentPad*%
%ADD15C,1.530000*%
%TD*%
%TA.AperFunction,ComponentPad*%
%ADD16C,2.000000*%
%TD*%
%TA.AperFunction,ComponentPad*%
%ADD17RoundRect,0.250000X1.000000X1.000000X-1.000000X1.000000X-1.000000X-1.000000X1.000000X-1.000000X0*%
%TD*%
%TA.AperFunction,ComponentPad*%
%ADD18RoundRect,0.250000X-0.750000X0.750000X-0.750000X-0.750000X0.750000X-0.750000X0.750000X0.750000X0*%
%TD*%
%TA.AperFunction,ComponentPad*%
%ADD19R,1.700000X1.700000*%
%TD*%
%TA.AperFunction,ComponentPad*%
%ADD20C,1.700000*%
%TD*%
%TA.AperFunction,ComponentPad*%
%ADD21RoundRect,0.250000X1.050000X-1.050000X1.050000X1.050000X-1.050000X1.050000X-1.050000X-1.050000X0*%
%TD*%
%TA.AperFunction,ComponentPad*%
%ADD22C,2.600000*%
%TD*%
%TA.AperFunction,ComponentPad*%
%ADD23RoundRect,0.250000X0.550000X0.550000X-0.550000X0.550000X-0.550000X-0.550000X0.550000X-0.550000X0*%
%TD*%
%TA.AperFunction,ComponentPad*%
%ADD24C,1.600000*%
%TD*%
%TA.AperFunction,ComponentPad*%
%ADD25O,1.600000X1.600000*%
%TD*%
%TA.AperFunction,ViaPad*%
%ADD26C,0.600000*%
%TD*%
%TA.AperFunction,ViaPad*%
%ADD27C,0.800000*%
%TD*%
%TA.AperFunction,Conductor*%
%ADD28C,0.200000*%
%TD*%
%TA.AperFunction,Conductor*%
%ADD29C,0.750000*%
%TD*%
G04 APERTURE END LIST*
D10*
%TO.P,MM6,1,Pin_1*%
%TO.N,/MOTOR6_A1*%
X181500000Y-79000000D03*
D11*
%TO.P,MM6,2,Pin_2*%
%TO.N,/MOTOR6_A2*%
X181500000Y-84080000D03*
%TO.P,MM6,3,Pin_3*%
%TO.N,/MOTOR6_B1*%
X181500000Y-89160000D03*
%TO.P,MM6,4,Pin_4*%
%TO.N,/MOTOR6_B2*%
X181500000Y-94240000D03*
%TD*%
D12*
%TO.P,U1,CN5_1,D8*%
%TO.N,unconnected-(U1F-D8-PadCN5_1)*%
X147500000Y-79740000D03*
D13*
%TO.P,U1,CN5_2,D9*%
%TO.N,unconnected-(U1F-D9-PadCN5_2)*%
X147500000Y-77200000D03*
%TO.P,U1,CN5_3,D10*%
%TO.N,unconnected-(U1F-D10-PadCN5_3)*%
X147500000Y-74660000D03*
%TO.P,U1,CN5_4,D11*%
%TO.N,unconnected-(U1F-D11-PadCN5_4)*%
X147500000Y-72120000D03*
%TO.P,U1,CN5_5,D12*%
%TO.N,unconnected-(U1F-D12-PadCN5_5)*%
X147500000Y-69580000D03*
%TO.P,U1,CN5_6,D13*%
%TO.N,unconnected-(U1F-D13-PadCN5_6)*%
X147500000Y-67040000D03*
%TO.P,U1,CN5_7,CN5_GND*%
%TO.N,unconnected-(U1F-CN5_GND-PadCN5_7)*%
X147500000Y-64500000D03*
%TO.P,U1,CN5_8,AREF*%
%TO.N,unconnected-(U1F-AREF-PadCN5_8)*%
X147500000Y-61960000D03*
%TO.P,U1,CN5_9,D14*%
%TO.N,unconnected-(U1F-D14-PadCN5_9)*%
X147500000Y-59420000D03*
%TO.P,U1,CN5_10,D15*%
%TO.N,unconnected-(U1F-D15-PadCN5_10)*%
X147500000Y-56880000D03*
D12*
%TO.P,U1,CN6_1*%
%TO.N,N/C*%
X99240000Y-66020000D03*
D13*
%TO.P,U1,CN6_2,CN6_IOREF*%
%TO.N,unconnected-(U1C-CN6_IOREF-PadCN6_2)*%
X99240000Y-68560000D03*
%TO.P,U1,CN6_3,CN6_RESET*%
%TO.N,unconnected-(U1C-CN6_RESET-PadCN6_3)*%
X99240000Y-71100000D03*
%TO.P,U1,CN6_4,CN6_+3V3*%
%TO.N,unconnected-(U1C-CN6_+3V3-PadCN6_4)*%
X99240000Y-73640000D03*
%TO.P,U1,CN6_5,CN6_+5V*%
%TO.N,unconnected-(U1C-CN6_+5V-PadCN6_5)*%
X99240000Y-76180000D03*
%TO.P,U1,CN6_6,CN6_GND*%
%TO.N,unconnected-(U1C-CN6_GND-PadCN6_6)*%
X99240000Y-78720000D03*
%TO.P,U1,CN6_7,CN6_GND__1*%
%TO.N,unconnected-(U1C-CN6_GND__1-PadCN6_7)*%
X99240000Y-81260000D03*
%TO.P,U1,CN6_8,CN6_VIN*%
%TO.N,unconnected-(U1C-CN6_VIN-PadCN6_8)*%
X99240000Y-83800000D03*
D14*
%TO.P,U1,CN7_1,PC10*%
%TO.N,DIR5*%
X91620000Y-55860000D03*
D15*
%TO.P,U1,CN7_2,PC11*%
%TO.N,DIR4*%
X94160000Y-55860000D03*
%TO.P,U1,CN7_3,PC12*%
%TO.N,DIR3*%
X91620000Y-58400000D03*
%TO.P,U1,CN7_4,PD2*%
%TO.N,DIR2*%
X94160000Y-58400000D03*
%TO.P,U1,CN7_5,VDD*%
%TO.N,unconnected-(U1A-VDD-PadCN7_5)*%
X91620000Y-60940000D03*
%TO.P,U1,CN7_6,E5V*%
%TO.N,unconnected-(U1A-E5V-PadCN7_6)*%
X94160000Y-60940000D03*
%TO.P,U1,CN7_7,BOOT0*%
%TO.N,unconnected-(U1A-BOOT0-PadCN7_7)*%
X91620000Y-63480000D03*
%TO.P,U1,CN7_8,CN7_GND*%
%TO.N,GND_IO*%
X94160000Y-63480000D03*
%TO.P,U1,CN7_9*%
%TO.N,N/C*%
X91620000Y-66020000D03*
%TO.P,U1,CN7_10*%
X94160000Y-66020000D03*
%TO.P,U1,CN7_11*%
X91620000Y-68560000D03*
%TO.P,U1,CN7_12,CN7_IOREF*%
%TO.N,unconnected-(U1A-CN7_IOREF-PadCN7_12)*%
X94160000Y-68560000D03*
%TO.P,U1,CN7_13,PA13*%
%TO.N,unconnected-(U1A-PA13-PadCN7_13)*%
X91620000Y-71100000D03*
%TO.P,U1,CN7_14,CN7_RESET*%
%TO.N,unconnected-(U1A-CN7_RESET-PadCN7_14)*%
X94160000Y-71100000D03*
%TO.P,U1,CN7_15,PA14*%
%TO.N,unconnected-(U1A-PA14-PadCN7_15)*%
X91620000Y-73640000D03*
%TO.P,U1,CN7_16,CN7_+3V3*%
%TO.N,VCC_IO*%
X94160000Y-73640000D03*
%TO.P,U1,CN7_17,PA15*%
%TO.N,unconnected-(U1A-PA15-PadCN7_17)*%
X91620000Y-76180000D03*
%TO.P,U1,CN7_18,CN7_+5V*%
%TO.N,unconnected-(U1A-CN7_+5V-PadCN7_18)*%
X94160000Y-76180000D03*
%TO.P,U1,CN7_19,CN7_GND__1*%
%TO.N,unconnected-(U1A-CN7_GND__1-PadCN7_19)*%
X91620000Y-78720000D03*
%TO.P,U1,CN7_20,CN7_GND__2*%
%TO.N,unconnected-(U1A-CN7_GND__2-PadCN7_20)*%
X94160000Y-78720000D03*
%TO.P,U1,CN7_21,PB7*%
%TO.N,LIMIT5_OUT*%
X91620000Y-81260000D03*
%TO.P,U1,CN7_22,CN7_GND__3*%
%TO.N,unconnected-(U1A-CN7_GND__3-PadCN7_22)*%
X94160000Y-81260000D03*
%TO.P,U1,CN7_23,PC13*%
%TO.N,LIMIT4_OUT*%
X91620000Y-83800000D03*
%TO.P,U1,CN7_24,CN7_VIN*%
%TO.N,unconnected-(U1A-CN7_VIN-PadCN7_24)*%
X94160000Y-83800000D03*
%TO.P,U1,CN7_25,PC14*%
%TO.N,LIMIT3*%
X91620000Y-86340000D03*
%TO.P,U1,CN7_26*%
%TO.N,N/C*%
X94160000Y-86340000D03*
%TO.P,U1,CN7_27,PC15*%
%TO.N,LIMIT2*%
X91620000Y-88880000D03*
%TO.P,U1,CN7_28,PA0*%
%TO.N,STEP3*%
X94160000Y-88880000D03*
%TO.P,U1,CN7_29,PH0*%
%TO.N,unconnected-(U1A-PH0-PadCN7_29)*%
X91620000Y-91420000D03*
%TO.P,U1,CN7_30,PA1*%
%TO.N,ENC1*%
X94160000Y-91420000D03*
%TO.P,U1,CN7_31,PH1*%
%TO.N,unconnected-(U1A-PH1-PadCN7_31)*%
X91620000Y-93960000D03*
%TO.P,U1,CN7_32,PA4*%
%TO.N,CSN*%
X94160000Y-93960000D03*
%TO.P,U1,CN7_33,VBAT*%
%TO.N,unconnected-(U1A-VBAT-PadCN7_33)*%
X91620000Y-96500000D03*
%TO.P,U1,CN7_34,PB0*%
%TO.N,ENC7*%
X94160000Y-96500000D03*
%TO.P,U1,CN7_35,PC2*%
%TO.N,ENC4*%
X91620000Y-99040000D03*
%TO.P,U1,CN7_36,PC1/PB9*%
%TO.N,DIR1*%
X94160000Y-99040000D03*
%TO.P,U1,CN7_37,PC3*%
%TO.N,ENC2*%
X91620000Y-101580000D03*
%TO.P,U1,CN7_38,PC0/PB8*%
%TO.N,LIMIT1_OUT*%
X94160000Y-101580000D03*
D12*
%TO.P,U1,CN8_1,A0*%
%TO.N,unconnected-(U1E-A0-PadCN8_1)*%
X99240000Y-88880000D03*
D13*
%TO.P,U1,CN8_2,A1*%
%TO.N,unconnected-(U1E-A1-PadCN8_2)*%
X99240000Y-91420000D03*
%TO.P,U1,CN8_3,A2*%
%TO.N,unconnected-(U1E-A2-PadCN8_3)*%
X99240000Y-93960000D03*
%TO.P,U1,CN8_4,A3*%
%TO.N,unconnected-(U1E-A3-PadCN8_4)*%
X99240000Y-96500000D03*
%TO.P,U1,CN8_5,A4*%
%TO.N,unconnected-(U1E-A4-PadCN8_5)*%
X99240000Y-99040000D03*
%TO.P,U1,CN8_6,A5*%
%TO.N,unconnected-(U1E-A5-PadCN8_6)*%
X99240000Y-101580000D03*
D12*
%TO.P,U1,CN9_1,D0*%
%TO.N,unconnected-(U1D-D0-PadCN9_1)*%
X147500000Y-101580000D03*
D13*
%TO.P,U1,CN9_2,D1*%
%TO.N,unconnected-(U1D-D1-PadCN9_2)*%
X147500000Y-99040000D03*
%TO.P,U1,CN9_3,D2*%
%TO.N,unconnected-(U1D-D2-PadCN9_3)*%
X147500000Y-96500000D03*
%TO.P,U1,CN9_4,D3*%
%TO.N,unconnected-(U1D-D3-PadCN9_4)*%
X147500000Y-93960000D03*
%TO.P,U1,CN9_5,D4*%
%TO.N,unconnected-(U1D-D4-PadCN9_5)*%
X147500000Y-91420000D03*
%TO.P,U1,CN9_6,D5*%
%TO.N,unconnected-(U1D-D5-PadCN9_6)*%
X147500000Y-88880000D03*
%TO.P,U1,CN9_7,D6*%
%TO.N,unconnected-(U1D-D6-PadCN9_7)*%
X147500000Y-86340000D03*
%TO.P,U1,CN9_8,D7*%
%TO.N,unconnected-(U1D-D7-PadCN9_8)*%
X147500000Y-83800000D03*
D14*
%TO.P,U1,CN10_1,PC9*%
%TO.N,unconnected-(U1B-PC9-PadCN10_1)*%
X152580000Y-55860000D03*
D15*
%TO.P,U1,CN10_2,PC8*%
%TO.N,unconnected-(U1B-PC8-PadCN10_2)*%
X155120000Y-55860000D03*
%TO.P,U1,CN10_3,PB8*%
%TO.N,STEP5*%
X152580000Y-58400000D03*
%TO.P,U1,CN10_4,PC6*%
%TO.N,STEP4*%
X155120000Y-58400000D03*
%TO.P,U1,CN10_5,PB9*%
%TO.N,STEP6*%
X152580000Y-60940000D03*
%TO.P,U1,CN10_6,PC5*%
%TO.N,ENC5*%
X155120000Y-60940000D03*
%TO.P,U1,CN10_7,AVDD*%
%TO.N,unconnected-(U1B-AVDD-PadCN10_7)*%
X152580000Y-63480000D03*
%TO.P,U1,CN10_8,U5V*%
%TO.N,unconnected-(U1B-U5V-PadCN10_8)*%
X155120000Y-63480000D03*
%TO.P,U1,CN10_9,CN10_GND*%
%TO.N,unconnected-(U1B-CN10_GND-PadCN10_9)*%
X152580000Y-66020000D03*
%TO.P,U1,CN10_10*%
%TO.N,N/C*%
X155120000Y-66020000D03*
%TO.P,U1,CN10_11,PA5*%
%TO.N,SCK*%
X152580000Y-68560000D03*
%TO.P,U1,CN10_12,PA12*%
%TO.N,DIR7*%
X155120000Y-68560000D03*
%TO.P,U1,CN10_13,PA6*%
%TO.N,MISO_OUT*%
X152580000Y-71100000D03*
%TO.P,U1,CN10_14,PA11*%
%TO.N,EN*%
X155120000Y-71100000D03*
%TO.P,U1,CN10_15,PA7*%
%TO.N,MOSI_OUT*%
X152580000Y-73640000D03*
%TO.P,U1,CN10_16,PB12*%
%TO.N,unconnected-(U1B-PB12-PadCN10_16)*%
X155120000Y-73640000D03*
%TO.P,U1,CN10_17,PB6*%
%TO.N,STEP2*%
X152580000Y-76180000D03*
%TO.P,U1,CN10_18*%
%TO.N,N/C*%
X155120000Y-76180000D03*
%TO.P,U1,CN10_19,PC7*%
%TO.N,STEP1*%
X152580000Y-78720000D03*
%TO.P,U1,CN10_20,CN10_GND__1*%
%TO.N,unconnected-(U1B-CN10_GND__1-PadCN10_20)*%
X155120000Y-78720000D03*
%TO.P,U1,CN10_21,PA9*%
%TO.N,unconnected-(U1B-PA9-PadCN10_21)*%
X152580000Y-81260000D03*
%TO.P,U1,CN10_22,PB2*%
%TO.N,unconnected-(U1B-PB2-PadCN10_22)*%
X155120000Y-81260000D03*
%TO.P,U1,CN10_23,PA8*%
%TO.N,unconnected-(U1B-PA8-PadCN10_23)*%
X152580000Y-83800000D03*
%TO.P,U1,CN10_24,PB1*%
%TO.N,ENC3*%
X155120000Y-83800000D03*
%TO.P,U1,CN10_25,PB10*%
%TO.N,unconnected-(U1B-PB10-PadCN10_25)*%
X152580000Y-86340000D03*
%TO.P,U1,CN10_26,PB15*%
%TO.N,unconnected-(U1B-PB15-PadCN10_26)*%
X155120000Y-86340000D03*
%TO.P,U1,CN10_27,PB4*%
%TO.N,unconnected-(U1B-PB4-PadCN10_27)*%
X152580000Y-88880000D03*
%TO.P,U1,CN10_28,PB14*%
%TO.N,STEP7*%
X155120000Y-88880000D03*
%TO.P,U1,CN10_29,PB5*%
%TO.N,LIMIT6*%
X152580000Y-91420000D03*
%TO.P,U1,CN10_30,PB13*%
%TO.N,unconnected-(U1B-PB13-PadCN10_30)*%
X155120000Y-91420000D03*
%TO.P,U1,CN10_31,PB3*%
%TO.N,unconnected-(U1B-PB3-PadCN10_31)*%
X152580000Y-93960000D03*
%TO.P,U1,CN10_32,AGND*%
%TO.N,unconnected-(U1B-AGND-PadCN10_32)*%
X155120000Y-93960000D03*
%TO.P,U1,CN10_33,PA10*%
%TO.N,DIR6*%
X152580000Y-96500000D03*
%TO.P,U1,CN10_34,PC4*%
%TO.N,ENC6*%
X155120000Y-96500000D03*
%TO.P,U1,CN10_35,PA2*%
%TO.N,unconnected-(U1B-PA2-PadCN10_35)*%
X152580000Y-99040000D03*
%TO.P,U1,CN10_36*%
%TO.N,N/C*%
X155120000Y-99040000D03*
%TO.P,U1,CN10_37,PA3*%
%TO.N,unconnected-(U1B-PA3-PadCN10_37)*%
X152580000Y-101580000D03*
%TO.P,U1,CN10_38*%
%TO.N,N/C*%
X155120000Y-101580000D03*
%TD*%
D16*
%TO.P,TMC2,1,EN*%
%TO.N,EN*%
X128930000Y-125896000D03*
%TO.P,TMC2,2,MOSI*%
%TO.N,Net-(TMC1-MISO)*%
X126390000Y-125896000D03*
%TO.P,TMC2,3,SCK*%
%TO.N,SCK*%
X123850000Y-125896000D03*
%TO.P,TMC2,4,CSN*%
%TO.N,CSN*%
X121310000Y-125896000D03*
%TO.P,TMC2,5,MISO*%
%TO.N,Net-(TMC2-MISO)*%
X118770000Y-125896000D03*
%TO.P,TMC2,6,CLK*%
%TO.N,unconnected-(TMC2-CLK-Pad6)*%
X116230000Y-125896000D03*
%TO.P,TMC2,7,STEP*%
%TO.N,STEP2*%
X113690000Y-125896000D03*
%TO.P,TMC2,8,DIR*%
%TO.N,DIR2*%
X111150000Y-125896000D03*
%TO.P,TMC2,9,VM*%
%TO.N,VM*%
X128930000Y-139104000D03*
%TO.P,TMC2,10,GND*%
%TO.N,GND*%
X126390000Y-139104000D03*
%TO.P,TMC2,11,A1*%
%TO.N,/MOTOR2_A1*%
X123850000Y-139104000D03*
%TO.P,TMC2,12,A2*%
%TO.N,/MOTOR2_A2*%
X121310000Y-139104000D03*
%TO.P,TMC2,13,B1*%
%TO.N,/MOTOR2_B1*%
X118770000Y-139104000D03*
%TO.P,TMC2,14,B2*%
%TO.N,/MOTOR2_B2*%
X116230000Y-139104000D03*
%TO.P,TMC2,15,VCC_IO*%
%TO.N,VCC_IO*%
X113690000Y-139104000D03*
%TO.P,TMC2,16,GND_IO*%
%TO.N,GND_IO*%
X111150000Y-139104000D03*
%TD*%
D17*
%TO.P,MM2,1,Pin_1*%
%TO.N,/MOTOR2_A1*%
X127240000Y-147500000D03*
D11*
%TO.P,MM2,2,Pin_2*%
%TO.N,/MOTOR2_A2*%
X122160000Y-147500000D03*
%TO.P,MM2,3,Pin_3*%
%TO.N,/MOTOR2_B1*%
X117080000Y-147500000D03*
%TO.P,MM2,4,Pin_4*%
%TO.N,/MOTOR2_B2*%
X112000000Y-147500000D03*
%TD*%
D18*
%TO.P,J1,1,Pin_1*%
%TO.N,LIMIT1_IN*%
X92000000Y-116500000D03*
D16*
%TO.P,J1,2,Pin_2*%
%TO.N,LIMIT4_IN*%
X92000000Y-119040000D03*
%TO.P,J1,3,Pin_3*%
%TO.N,LIMIT5_IN*%
X92000000Y-121580000D03*
%TD*%
%TO.P,TMC1,1,EN*%
%TO.N,EN*%
X107850000Y-125896000D03*
%TO.P,TMC1,2,MOSI*%
%TO.N,MOSI_OUT*%
X105310000Y-125896000D03*
%TO.P,TMC1,3,SCK*%
%TO.N,SCK*%
X102770000Y-125896000D03*
%TO.P,TMC1,4,CSN*%
%TO.N,CSN*%
X100230000Y-125896000D03*
%TO.P,TMC1,5,MISO*%
%TO.N,Net-(TMC1-MISO)*%
X97690000Y-125896000D03*
%TO.P,TMC1,6,CLK*%
%TO.N,unconnected-(TMC1-CLK-Pad6)*%
X95150000Y-125896000D03*
%TO.P,TMC1,7,STEP*%
%TO.N,STEP1*%
X92610000Y-125896000D03*
%TO.P,TMC1,8,DIR*%
%TO.N,DIR1*%
X90070000Y-125896000D03*
%TO.P,TMC1,9,VM*%
%TO.N,VM*%
X107850000Y-139104000D03*
%TO.P,TMC1,10,GND*%
%TO.N,GND*%
X105310000Y-139104000D03*
%TO.P,TMC1,11,A1*%
%TO.N,/MOTOR1_A1*%
X102770000Y-139104000D03*
%TO.P,TMC1,12,A2*%
%TO.N,/MOTOR1_A2*%
X100230000Y-139104000D03*
%TO.P,TMC1,13,B1*%
%TO.N,/MOTOR1_B1*%
X97690000Y-139104000D03*
%TO.P,TMC1,14,B2*%
%TO.N,/MOTOR1_B2*%
X95150000Y-139104000D03*
%TO.P,TMC1,15,VCC_IO*%
%TO.N,VCC_IO*%
X92610000Y-139104000D03*
%TO.P,TMC1,16,GND_IO*%
%TO.N,GND_IO*%
X90070000Y-139104000D03*
%TD*%
D10*
%TO.P,MM5,1,Pin_1*%
%TO.N,/MOTOR5_A1*%
X181500000Y-99500000D03*
D11*
%TO.P,MM5,2,Pin_2*%
%TO.N,/MOTOR5_A2*%
X181500000Y-104580000D03*
%TO.P,MM5,3,Pin_3*%
%TO.N,/MOTOR5_B1*%
X181500000Y-109660000D03*
%TO.P,MM5,4,Pin_4*%
%TO.N,/MOTOR5_B2*%
X181500000Y-114740000D03*
%TD*%
D10*
%TO.P,MM7,1,Pin_1*%
%TO.N,/MOTOR7_A1*%
X181500000Y-58260000D03*
D11*
%TO.P,MM7,2,Pin_2*%
%TO.N,/MOTOR7_A2*%
X181500000Y-63340000D03*
%TO.P,MM7,3,Pin_3*%
%TO.N,/MOTOR7_B1*%
X181500000Y-68420000D03*
%TO.P,MM7,4,Pin_4*%
%TO.N,/MOTOR7_B2*%
X181500000Y-73500000D03*
%TD*%
D16*
%TO.P,TMC3,1,EN*%
%TO.N,EN*%
X150240000Y-125792000D03*
%TO.P,TMC3,2,MOSI*%
%TO.N,Net-(TMC2-MISO)*%
X147700000Y-125792000D03*
%TO.P,TMC3,3,SCK*%
%TO.N,SCK*%
X145160000Y-125792000D03*
%TO.P,TMC3,4,CSN*%
%TO.N,CSN*%
X142620000Y-125792000D03*
%TO.P,TMC3,5,MISO*%
%TO.N,Net-(TMC3-MISO)*%
X140080000Y-125792000D03*
%TO.P,TMC3,6,CLK*%
%TO.N,unconnected-(TMC3-CLK-Pad6)*%
X137540000Y-125792000D03*
%TO.P,TMC3,7,STEP*%
%TO.N,STEP3*%
X135000000Y-125792000D03*
%TO.P,TMC3,8,DIR*%
%TO.N,DIR3*%
X132460000Y-125792000D03*
%TO.P,TMC3,9,VM*%
%TO.N,VM*%
X150240000Y-139000000D03*
%TO.P,TMC3,10,GND*%
%TO.N,GND*%
X147700000Y-139000000D03*
%TO.P,TMC3,11,A1*%
%TO.N,/MOTOR3_A1*%
X145160000Y-139000000D03*
%TO.P,TMC3,12,A2*%
%TO.N,/MOTOR3_A2*%
X142620000Y-139000000D03*
%TO.P,TMC3,13,B1*%
%TO.N,/MOTOR3_B1*%
X140080000Y-139000000D03*
%TO.P,TMC3,14,B2*%
%TO.N,/MOTOR3_B2*%
X137540000Y-139000000D03*
%TO.P,TMC3,15,VCC_IO*%
%TO.N,VCC_IO*%
X135000000Y-139000000D03*
%TO.P,TMC3,16,GND_IO*%
%TO.N,GND_IO*%
X132460000Y-139000000D03*
%TD*%
%TO.P,TMC5,1,EN*%
%TO.N,EN*%
X160500000Y-100260000D03*
%TO.P,TMC5,2,MOSI*%
%TO.N,Net-(TMC4-MISO)*%
X160500000Y-102800000D03*
%TO.P,TMC5,3,SCK*%
%TO.N,SCK*%
X160500000Y-105340000D03*
%TO.P,TMC5,4,CSN*%
%TO.N,CSN*%
X160500000Y-107880000D03*
%TO.P,TMC5,5,MISO*%
%TO.N,Net-(TMC5-MISO)*%
X160500000Y-110420000D03*
%TO.P,TMC5,6,CLK*%
%TO.N,unconnected-(TMC5-CLK-Pad6)*%
X160500000Y-112960000D03*
%TO.P,TMC5,7,STEP*%
%TO.N,STEP5*%
X160500000Y-115500000D03*
%TO.P,TMC5,8,DIR*%
%TO.N,DIR5*%
X160500000Y-118040000D03*
%TO.P,TMC5,9,VM*%
%TO.N,VM*%
X173708000Y-100260000D03*
%TO.P,TMC5,10,GND*%
%TO.N,GND*%
X173708000Y-102800000D03*
%TO.P,TMC5,11,A1*%
%TO.N,/MOTOR5_A1*%
X173708000Y-105340000D03*
%TO.P,TMC5,12,A2*%
%TO.N,/MOTOR5_A2*%
X173708000Y-107880000D03*
%TO.P,TMC5,13,B1*%
%TO.N,/MOTOR5_B1*%
X173708000Y-110420000D03*
%TO.P,TMC5,14,B2*%
%TO.N,/MOTOR5_B2*%
X173708000Y-112960000D03*
%TO.P,TMC5,15,VCC_IO*%
%TO.N,VCC_IO*%
X173708000Y-115500000D03*
%TO.P,TMC5,16,GND_IO*%
%TO.N,GND_IO*%
X173708000Y-118040000D03*
%TD*%
%TO.P,TMC7,1,EN*%
%TO.N,EN*%
X160000000Y-56720000D03*
%TO.P,TMC7,2,MOSI*%
%TO.N,Net-(TMC6-MISO)*%
X160000000Y-59260000D03*
%TO.P,TMC7,3,SCK*%
%TO.N,SCK*%
X160000000Y-61800000D03*
%TO.P,TMC7,4,CSN*%
%TO.N,CSN*%
X160000000Y-64340000D03*
%TO.P,TMC7,5,MISO*%
%TO.N,MISO_OUT*%
X160000000Y-66880000D03*
%TO.P,TMC7,6,CLK*%
%TO.N,unconnected-(TMC7-CLK-Pad6)*%
X160000000Y-69420000D03*
%TO.P,TMC7,7,STEP*%
%TO.N,STEP7*%
X160000000Y-71960000D03*
%TO.P,TMC7,8,DIR*%
%TO.N,DIR7*%
X160000000Y-74500000D03*
%TO.P,TMC7,9,VM*%
%TO.N,VM*%
X173208000Y-56720000D03*
%TO.P,TMC7,10,GND*%
%TO.N,GND*%
X173208000Y-59260000D03*
%TO.P,TMC7,11,A1*%
%TO.N,/MOTOR7_A1*%
X173208000Y-61800000D03*
%TO.P,TMC7,12,A2*%
%TO.N,/MOTOR7_A2*%
X173208000Y-64340000D03*
%TO.P,TMC7,13,B1*%
%TO.N,/MOTOR7_B1*%
X173208000Y-66880000D03*
%TO.P,TMC7,14,B2*%
%TO.N,/MOTOR7_B2*%
X173208000Y-69420000D03*
%TO.P,TMC7,15,VCC_IO*%
%TO.N,VCC_IO*%
X173208000Y-71960000D03*
%TO.P,TMC7,16,GND_IO*%
%TO.N,GND_IO*%
X173208000Y-74500000D03*
%TD*%
%TO.P,TMC4,1,EN*%
%TO.N,EN*%
X171740000Y-125500000D03*
%TO.P,TMC4,2,MOSI*%
%TO.N,Net-(TMC3-MISO)*%
X169200000Y-125500000D03*
%TO.P,TMC4,3,SCK*%
%TO.N,SCK*%
X166660000Y-125500000D03*
%TO.P,TMC4,4,CSN*%
%TO.N,CSN*%
X164120000Y-125500000D03*
%TO.P,TMC4,5,MISO*%
%TO.N,Net-(TMC4-MISO)*%
X161580000Y-125500000D03*
%TO.P,TMC4,6,CLK*%
%TO.N,unconnected-(TMC4-CLK-Pad6)*%
X159040000Y-125500000D03*
%TO.P,TMC4,7,STEP*%
%TO.N,STEP4*%
X156500000Y-125500000D03*
%TO.P,TMC4,8,DIR*%
%TO.N,DIR4*%
X153960000Y-125500000D03*
%TO.P,TMC4,9,VM*%
%TO.N,VM*%
X171740000Y-138708000D03*
%TO.P,TMC4,10,GND*%
%TO.N,GND*%
X169200000Y-138708000D03*
%TO.P,TMC4,11,A1*%
%TO.N,/MOTOR4_A1*%
X166660000Y-138708000D03*
%TO.P,TMC4,12,A2*%
%TO.N,/MOTOR4_A2*%
X164120000Y-138708000D03*
%TO.P,TMC4,13,B1*%
%TO.N,/MOTOR4_B1*%
X161580000Y-138708000D03*
%TO.P,TMC4,14,B2*%
%TO.N,/MOTOR4_B2*%
X159040000Y-138708000D03*
%TO.P,TMC4,15,VCC_IO*%
%TO.N,VCC_IO*%
X156500000Y-138708000D03*
%TO.P,TMC4,16,GND_IO*%
%TO.N,GND_IO*%
X153960000Y-138708000D03*
%TD*%
D17*
%TO.P,MM4,1,Pin_1*%
%TO.N,/MOTOR4_A1*%
X168240000Y-147500000D03*
D11*
%TO.P,MM4,2,Pin_2*%
%TO.N,/MOTOR4_A2*%
X163160000Y-147500000D03*
%TO.P,MM4,3,Pin_3*%
%TO.N,/MOTOR4_B1*%
X158080000Y-147500000D03*
%TO.P,MM4,4,Pin_4*%
%TO.N,/MOTOR4_B2*%
X153000000Y-147500000D03*
%TD*%
D16*
%TO.P,TMC6,1,EN*%
%TO.N,EN*%
X160000000Y-78220000D03*
%TO.P,TMC6,2,MOSI*%
%TO.N,Net-(TMC5-MISO)*%
X160000000Y-80760000D03*
%TO.P,TMC6,3,SCK*%
%TO.N,SCK*%
X160000000Y-83300000D03*
%TO.P,TMC6,4,CSN*%
%TO.N,CSN*%
X160000000Y-85840000D03*
%TO.P,TMC6,5,MISO*%
%TO.N,Net-(TMC6-MISO)*%
X160000000Y-88380000D03*
%TO.P,TMC6,6,CLK*%
%TO.N,unconnected-(TMC6-CLK-Pad6)*%
X160000000Y-90920000D03*
%TO.P,TMC6,7,STEP*%
%TO.N,STEP6*%
X160000000Y-93460000D03*
%TO.P,TMC6,8,DIR*%
%TO.N,DIR6*%
X160000000Y-96000000D03*
%TO.P,TMC6,9,VM*%
%TO.N,VM*%
X173208000Y-78220000D03*
%TO.P,TMC6,10,GND*%
%TO.N,GND*%
X173208000Y-80760000D03*
%TO.P,TMC6,11,A1*%
%TO.N,/MOTOR6_A1*%
X173208000Y-83300000D03*
%TO.P,TMC6,12,A2*%
%TO.N,/MOTOR6_A2*%
X173208000Y-85840000D03*
%TO.P,TMC6,13,B1*%
%TO.N,/MOTOR6_B1*%
X173208000Y-88380000D03*
%TO.P,TMC6,14,B2*%
%TO.N,/MOTOR6_B2*%
X173208000Y-90920000D03*
%TO.P,TMC6,15,VCC_IO*%
%TO.N,VCC_IO*%
X173208000Y-93460000D03*
%TO.P,TMC6,16,GND_IO*%
%TO.N,GND_IO*%
X173208000Y-96000000D03*
%TD*%
D19*
%TO.P,Encoder_MUX_VIO1,1,Pin_1*%
%TO.N,VCC_IO*%
X144040000Y-119045000D03*
D20*
%TO.P,Encoder_MUX_VIO1,2,Pin_2*%
X141500000Y-119045000D03*
%TO.P,Encoder_MUX_VIO1,3,Pin_3*%
X138960000Y-119045000D03*
%TO.P,Encoder_MUX_VIO1,4,Pin_4*%
X136420000Y-119045000D03*
%TO.P,Encoder_MUX_VIO1,5,Pin_5*%
X133880000Y-119045000D03*
%TO.P,Encoder_MUX_VIO1,6,Pin_6*%
X131340000Y-119045000D03*
%TO.P,Encoder_MUX_VIO1,7,Pin_7*%
X128800000Y-119045000D03*
%TO.P,Encoder_MUX_VIO1,8,Pin_8*%
X126260000Y-119045000D03*
%TO.P,Encoder_MUX_VIO1,9,Pin_9*%
X123720000Y-119045000D03*
%TO.P,Encoder_MUX_VIO1,10,Pin_10*%
X121180000Y-119045000D03*
%TD*%
D17*
%TO.P,MM3,1,Pin_1*%
%TO.N,/MOTOR3_A1*%
X147740000Y-147500000D03*
D11*
%TO.P,MM3,2,Pin_2*%
%TO.N,/MOTOR3_A2*%
X142660000Y-147500000D03*
%TO.P,MM3,3,Pin_3*%
%TO.N,/MOTOR3_B1*%
X137580000Y-147500000D03*
%TO.P,MM3,4,Pin_4*%
%TO.N,/MOTOR3_B2*%
X132500000Y-147500000D03*
%TD*%
D17*
%TO.P,MM1,1,Pin_1*%
%TO.N,/MOTOR1_A1*%
X106620000Y-147500000D03*
D11*
%TO.P,MM1,2,Pin_2*%
%TO.N,/MOTOR1_A2*%
X101540000Y-147500000D03*
%TO.P,MM1,3,Pin_3*%
%TO.N,/MOTOR1_B1*%
X96460000Y-147500000D03*
%TO.P,MM1,4,Pin_4*%
%TO.N,/MOTOR1_B2*%
X91380000Y-147500000D03*
%TD*%
D21*
%TO.P,PS1,1,Pin_1*%
%TO.N,VM*%
X182667500Y-131045000D03*
D22*
%TO.P,PS1,2,Pin_2*%
%TO.N,GND*%
X182667500Y-125965000D03*
%TD*%
D19*
%TO.P,Encoder_MUX_GND1,1,Pin_1*%
%TO.N,GND_IO*%
X143540000Y-110500000D03*
D20*
%TO.P,Encoder_MUX_GND1,2,Pin_2*%
X141000000Y-110500000D03*
%TO.P,Encoder_MUX_GND1,3,Pin_3*%
X138460000Y-110500000D03*
%TO.P,Encoder_MUX_GND1,4,Pin_4*%
X135920000Y-110500000D03*
%TO.P,Encoder_MUX_GND1,5,Pin_5*%
X133380000Y-110500000D03*
%TO.P,Encoder_MUX_GND1,6,Pin_6*%
X130840000Y-110500000D03*
%TO.P,Encoder_MUX_GND1,7,Pin_7*%
X128300000Y-110500000D03*
%TO.P,Encoder_MUX_GND1,8,Pin_8*%
X125760000Y-110500000D03*
%TO.P,Encoder_MUX_GND1,9,Pin_9*%
X123220000Y-110500000D03*
%TO.P,Encoder_MUX_GND1,10,Pin_10*%
X120680000Y-110500000D03*
%TD*%
D23*
%TO.P,OC1,1*%
%TO.N,/RIN_1*%
X117805000Y-71960000D03*
D24*
%TO.P,OC1,2*%
%TO.N,LIMIT1_IN*%
X117805000Y-74500000D03*
%TO.P,OC1,3,NC*%
%TO.N,unconnected-(OC1-NC-Pad3)*%
X117805000Y-77040000D03*
%TO.P,OC1,4*%
%TO.N,LIMIT1_OUT*%
X110185000Y-77040000D03*
%TO.P,OC1,5*%
%TO.N,Net-(OC1-Pad5)*%
X110185000Y-74500000D03*
%TO.P,OC1,6*%
%TO.N,unconnected-(OC1-Pad6)*%
X110185000Y-71960000D03*
%TD*%
%TO.P,R4,1*%
%TO.N,VCC_IO*%
X117810000Y-80500000D03*
%TO.P,R4,2*%
%TO.N,Net-(OC1-Pad5)*%
X110190000Y-80500000D03*
%TD*%
D23*
%TO.P,OC2,1*%
%TO.N,/RIN_2*%
X117805000Y-88460000D03*
D24*
%TO.P,OC2,2*%
%TO.N,LIMIT4_IN*%
X117805000Y-91000000D03*
%TO.P,OC2,3,NC*%
%TO.N,unconnected-(OC2-NC-Pad3)*%
X117805000Y-93540000D03*
%TO.P,OC2,4*%
%TO.N,LIMIT4_OUT*%
X110185000Y-93540000D03*
%TO.P,OC2,5*%
%TO.N,Net-(OC2-Pad5)*%
X110185000Y-91000000D03*
%TO.P,OC2,6*%
%TO.N,unconnected-(OC2-Pad6)*%
X110185000Y-88460000D03*
%TD*%
%TO.P,R3,1*%
%TO.N,/RIN_3*%
X117310000Y-101000000D03*
D25*
%TO.P,R3,2*%
%TO.N,VM*%
X109690000Y-101000000D03*
%TD*%
D24*
%TO.P,R2,1*%
%TO.N,/RIN_2*%
X117810000Y-84500000D03*
D25*
%TO.P,R2,2*%
%TO.N,VM*%
X110190000Y-84500000D03*
%TD*%
D24*
%TO.P,R5,1*%
%TO.N,VCC_IO*%
X117810000Y-97000000D03*
%TO.P,R5,2*%
%TO.N,Net-(OC2-Pad5)*%
X110190000Y-97000000D03*
%TD*%
D23*
%TO.P,OC3,1*%
%TO.N,/RIN_3*%
X117305000Y-104460000D03*
D24*
%TO.P,OC3,2*%
%TO.N,LIMIT5_IN*%
X117305000Y-107000000D03*
%TO.P,OC3,3,NC*%
%TO.N,unconnected-(OC3-NC-Pad3)*%
X117305000Y-109540000D03*
%TO.P,OC3,4*%
%TO.N,LIMIT5_OUT*%
X109685000Y-109540000D03*
%TO.P,OC3,5*%
%TO.N,Net-(OC3-Pad5)*%
X109685000Y-107000000D03*
%TO.P,OC3,6*%
%TO.N,unconnected-(OC3-Pad6)*%
X109685000Y-104460000D03*
%TD*%
%TO.P,R6,1*%
%TO.N,VCC_IO*%
X117810000Y-113000000D03*
%TO.P,R6,2*%
%TO.N,Net-(OC3-Pad5)*%
X110190000Y-113000000D03*
%TD*%
%TO.P,R1,1*%
%TO.N,/RIN_1*%
X117810000Y-68500000D03*
D25*
%TO.P,R1,2*%
%TO.N,VM*%
X110190000Y-68500000D03*
%TD*%
D26*
%TO.N,EN*%
X163598000Y-78448900D03*
X107056000Y-128871000D03*
%TO.N,LIMIT1_IN*%
X115111000Y-113814000D03*
%TO.N,LIMIT4_IN*%
X116291000Y-117486000D03*
D27*
%TO.N,VM*%
X173756000Y-133361000D03*
X110003000Y-134444000D03*
D26*
%TO.N,GND_IO*%
X130633000Y-143724000D03*
X150585000Y-119649000D03*
X170812000Y-98056100D03*
X168945000Y-75501800D03*
X168670000Y-96014800D03*
%TO.N,SCK*%
X163085000Y-84343100D03*
X161955000Y-82938600D03*
%TO.N,VCC_IO*%
X171650000Y-98059400D03*
X112950000Y-136503000D03*
X132893000Y-142589000D03*
X175769000Y-72554700D03*
X176011000Y-93184400D03*
%TO.N,DIR4*%
X149046000Y-61231200D03*
%TO.N,CSN*%
X120896000Y-122476000D03*
%TO.N,DIR5*%
X94477400Y-117417000D03*
%TO.N,STEP5*%
X148943000Y-113814000D03*
%TO.N,STEP6*%
X152925000Y-92690000D03*
%TO.N,DIR7*%
X157441000Y-71951600D03*
X157127000Y-69409600D03*
%TO.N,STEP1*%
X149282000Y-117786000D03*
%TO.N,STEP2*%
X115898000Y-86114800D03*
%TO.N,DIR2*%
X110003000Y-62926600D03*
%TO.N,STEP3*%
X133580000Y-99078600D03*
%TO.N,DIR3*%
X130633000Y-63713400D03*
%TO.N,LIMIT1_OUT*%
X108989000Y-98591300D03*
X108722000Y-78100300D03*
%TO.N,MOSI_OUT*%
X106429000Y-75681900D03*
%TO.N,Net-(TMC2-MISO)*%
X148008000Y-122734000D03*
%TO.N,Net-(TMC4-MISO)*%
X156519000Y-104973000D03*
%TO.N,LIMIT5_OUT*%
X97452000Y-109094000D03*
%TD*%
D28*
%TO.N,EN*%
X156526000Y-69694400D02*
X155120000Y-71100000D01*
X163687000Y-78537500D02*
X163598000Y-78448900D01*
X160500000Y-100260000D02*
X163687000Y-97073000D01*
X168070000Y-107830000D02*
X160500000Y-100260000D01*
X156526000Y-60194400D02*
X156526000Y-69694400D01*
X171740000Y-125500000D02*
X168070000Y-121830000D01*
X107850000Y-125896000D02*
X107850000Y-128078000D01*
X163687000Y-97073000D02*
X163687000Y-78537500D01*
X168070000Y-121830000D02*
X168070000Y-107830000D01*
X107850000Y-128078000D02*
X107056000Y-128871000D01*
X160000000Y-56720000D02*
X156526000Y-60194400D01*
X163687000Y-78448900D02*
X163598000Y-78448900D01*
X163598000Y-78448900D02*
X163687000Y-78448900D01*
%TO.N,LIMIT1_IN*%
X115111000Y-91554400D02*
X115111000Y-113814000D01*
X116652000Y-90012800D02*
X115111000Y-91554400D01*
X117805000Y-74500000D02*
X116652000Y-75652700D01*
X116652000Y-75652700D02*
X116652000Y-90012800D01*
%TO.N,LIMIT4_IN*%
X116098000Y-117293000D02*
X116291000Y-117486000D01*
X116098000Y-92706600D02*
X116098000Y-117293000D01*
X117805000Y-91000000D02*
X116098000Y-92706600D01*
D29*
%TO.N,VM*%
X173708000Y-100260000D02*
X173708000Y-98806800D01*
X110003000Y-136951000D02*
X110003000Y-134444000D01*
X109500000Y-116582000D02*
X109500000Y-133940000D01*
X171579000Y-76590700D02*
X173208000Y-78220000D01*
X173208000Y-56720000D02*
X171579000Y-58349300D01*
X110190000Y-68500000D02*
X110190000Y-69926700D01*
X173756000Y-133361000D02*
X173756000Y-123629000D01*
X111630000Y-114452000D02*
X109500000Y-116582000D01*
X173208000Y-78220000D02*
X171580000Y-79847800D01*
X173756000Y-123629000D02*
X169835000Y-119708000D01*
X109690000Y-100334000D02*
X109690000Y-99573300D01*
X111630000Y-102274000D02*
X111630000Y-114452000D01*
X109690000Y-99573300D02*
X111622000Y-97641600D01*
X169835000Y-119708000D02*
X169835000Y-113082000D01*
X110190000Y-84500000D02*
X110190000Y-85926700D01*
X171579000Y-58349300D02*
X171579000Y-76590700D01*
X111622000Y-85926700D02*
X110190000Y-85926700D01*
X111622000Y-97641600D02*
X111622000Y-85926700D01*
X170379000Y-97117600D02*
X171580000Y-97117600D01*
X111622000Y-71358400D02*
X111622000Y-85926700D01*
X107850000Y-139104000D02*
X110003000Y-136951000D01*
X109690000Y-101000000D02*
X109690000Y-100334000D01*
X171580000Y-79847800D02*
X171580000Y-97117600D01*
X109690000Y-100334000D02*
X111630000Y-102274000D01*
X110190000Y-69926700D02*
X111622000Y-71358400D01*
X173708000Y-98806800D02*
X172019000Y-97117600D01*
X172019000Y-97117600D02*
X171580000Y-97117600D01*
X109500000Y-133940000D02*
X110003000Y-134444000D01*
X169834000Y-113080000D02*
X169834000Y-97663400D01*
X169834000Y-97663400D02*
X170379000Y-97117600D01*
X169835000Y-113082000D02*
X169834000Y-113080000D01*
D28*
%TO.N,GND_IO*%
X130643000Y-125594000D02*
X127626000Y-122577000D01*
X151956000Y-136704000D02*
X153960000Y-138708000D01*
X130633000Y-143724000D02*
X130633000Y-140827000D01*
X130633000Y-140827000D02*
X132460000Y-139000000D01*
X168945000Y-95739300D02*
X168670000Y-96014800D01*
X91858900Y-67290000D02*
X91369900Y-67290000D01*
X88764100Y-69895800D02*
X88764100Y-137798000D01*
X92890000Y-66258900D02*
X91858900Y-67290000D01*
X143540000Y-110500000D02*
X143540000Y-111652000D01*
X151956000Y-121020000D02*
X151956000Y-136704000D01*
X130643000Y-137183000D02*
X130643000Y-125594000D01*
X127626000Y-122577000D02*
X127626000Y-111174000D01*
X127626000Y-111174000D02*
X128300000Y-110500000D01*
X91369900Y-67290000D02*
X88764100Y-69895800D01*
X92890000Y-64750000D02*
X92890000Y-66258900D01*
X170812000Y-98056100D02*
X170812000Y-115144000D01*
X94160000Y-63480000D02*
X92890000Y-64750000D01*
X88764100Y-137798000D02*
X90070000Y-139104000D01*
X143540000Y-111652000D02*
X143540000Y-113467000D01*
X168945000Y-75501800D02*
X168945000Y-95739300D01*
X132460000Y-139000000D02*
X130643000Y-137183000D01*
X170812000Y-115144000D02*
X173708000Y-118040000D01*
X150585000Y-119649000D02*
X151956000Y-121020000D01*
X143540000Y-113467000D02*
X149722000Y-119649000D01*
X149722000Y-119649000D02*
X150585000Y-119649000D01*
%TO.N,SCK*%
X160000000Y-61800000D02*
X161677000Y-63476800D01*
X159197000Y-99711300D02*
X163085000Y-95822900D01*
X161955000Y-65539500D02*
X161955000Y-83065600D01*
X160500000Y-105340000D02*
X159197000Y-104037000D01*
X163085000Y-95822900D02*
X163085000Y-84343100D01*
X161955000Y-83065600D02*
X161955000Y-82938600D01*
X159197000Y-104037000D02*
X159197000Y-99711300D01*
X166660000Y-125500000D02*
X166660000Y-111500000D01*
X161677000Y-63476800D02*
X161677000Y-65260900D01*
X166660000Y-111500000D02*
X160500000Y-105340000D01*
X161677000Y-65260900D02*
X161955000Y-65539500D01*
%TO.N,VCC_IO*%
X175769000Y-72554700D02*
X176011000Y-72796700D01*
X118992000Y-81681900D02*
X118992000Y-96482900D01*
X118475000Y-97000000D02*
X117810000Y-97000000D01*
X113690000Y-137242000D02*
X113690000Y-139104000D01*
X117810000Y-80500000D02*
X118992000Y-81681900D01*
X155187000Y-140021000D02*
X153422000Y-140021000D01*
X118475000Y-112335000D02*
X117810000Y-113000000D01*
X132893000Y-142589000D02*
X133762000Y-141720000D01*
X121180000Y-116370000D02*
X121180000Y-119045000D01*
X156500000Y-138708000D02*
X155187000Y-140021000D01*
X153422000Y-140021000D02*
X151547000Y-138146000D01*
X118475000Y-97000000D02*
X118475000Y-112335000D01*
X133762000Y-138461000D02*
X131102000Y-135801000D01*
X133762000Y-141720000D02*
X133762000Y-139000000D01*
X176011000Y-72796700D02*
X176011000Y-93184400D01*
X133762000Y-139000000D02*
X133762000Y-138461000D01*
X133762000Y-139000000D02*
X135000000Y-139000000D01*
X117810000Y-113000000D02*
X121180000Y-116370000D01*
X128800000Y-123142000D02*
X128800000Y-119045000D01*
X171650000Y-98059400D02*
X171650000Y-113442000D01*
X151547000Y-138146000D02*
X151547000Y-125258000D01*
X112950000Y-136503000D02*
X113690000Y-137242000D01*
X151547000Y-125258000D02*
X145334000Y-119045000D01*
X171650000Y-113442000D02*
X173708000Y-115500000D01*
X131102000Y-135801000D02*
X131102000Y-125443000D01*
X118992000Y-96482900D02*
X118475000Y-97000000D01*
X131102000Y-125443000D02*
X128800000Y-123142000D01*
X145334000Y-119045000D02*
X144040000Y-119045000D01*
D29*
%TO.N,GND*%
X178120000Y-107212000D02*
X178120000Y-125965000D01*
X169200000Y-138708000D02*
X173520000Y-134388000D01*
X182668000Y-125965000D02*
X178120000Y-125965000D01*
X173520000Y-134388000D02*
X174182000Y-134388000D01*
X175335000Y-101173000D02*
X173708000Y-102800000D01*
X175085000Y-82636700D02*
X175085000Y-93568200D01*
X175335000Y-93818200D02*
X175335000Y-101173000D01*
X174843000Y-79125300D02*
X173208000Y-80760000D01*
X175085000Y-93568200D02*
X175335000Y-93818200D01*
X173208000Y-59260000D02*
X174843000Y-60894700D01*
X174182000Y-134388000D02*
X178120000Y-130449000D01*
X174843000Y-60894700D02*
X174843000Y-79125300D01*
X178120000Y-130449000D02*
X178120000Y-125965000D01*
X173708000Y-102800000D02*
X178120000Y-107212000D01*
X173208000Y-80760000D02*
X175085000Y-82636700D01*
D28*
%TO.N,DIR4*%
X148604000Y-61672800D02*
X148604000Y-99531100D01*
X148604000Y-99531100D02*
X147660000Y-100476000D01*
X148341000Y-104453000D02*
X148341000Y-117618000D01*
X152509000Y-120688000D02*
X152509000Y-124049000D01*
X146572000Y-100476000D02*
X146396000Y-100652000D01*
X146396000Y-102508000D02*
X148341000Y-104453000D01*
X148444000Y-117803000D02*
X149443000Y-118802000D01*
X147660000Y-100476000D02*
X146572000Y-100476000D01*
X148444000Y-117720000D02*
X148444000Y-117803000D01*
X149046000Y-61231200D02*
X148604000Y-61672800D01*
X146396000Y-100652000D02*
X146396000Y-102508000D01*
X148341000Y-117618000D02*
X148444000Y-117720000D01*
X150623000Y-118802000D02*
X152509000Y-120688000D01*
X149443000Y-118802000D02*
X150623000Y-118802000D01*
X152509000Y-124049000D02*
X153960000Y-125500000D01*
%TO.N,STEP4*%
X154053000Y-123053000D02*
X156500000Y-125500000D01*
X154053000Y-59466700D02*
X154053000Y-123053000D01*
X155120000Y-58400000D02*
X154053000Y-59466700D01*
%TO.N,CSN*%
X158745000Y-98993500D02*
X158745000Y-104332000D01*
X121457000Y-125896000D02*
X121457000Y-123037000D01*
X158745000Y-104332000D02*
X159147000Y-104734000D01*
X161354000Y-65693700D02*
X161354000Y-84486300D01*
X159097000Y-97496300D02*
X159097000Y-98642000D01*
X160000000Y-64340000D02*
X161354000Y-65693700D01*
X164120000Y-125500000D02*
X164120000Y-111500000D01*
X158696000Y-97095700D02*
X159097000Y-97496300D01*
X121457000Y-125896000D02*
X121604000Y-125896000D01*
X121457000Y-123037000D02*
X120896000Y-122476000D01*
X100230000Y-125896000D02*
X98053700Y-123720000D01*
X160000000Y-85840000D02*
X158696000Y-87143900D01*
X158696000Y-87143900D02*
X158696000Y-97095700D01*
X161354000Y-84486300D02*
X160000000Y-85840000D01*
X159147000Y-104734000D02*
X159147000Y-106527000D01*
X164120000Y-111500000D02*
X160500000Y-107880000D01*
X98053700Y-97853700D02*
X94160000Y-93960000D01*
X121310000Y-125896000D02*
X121457000Y-125896000D01*
X159147000Y-106527000D02*
X160500000Y-107880000D01*
X98053700Y-123720000D02*
X98053700Y-97853700D01*
X159097000Y-98642000D02*
X158745000Y-98993500D01*
%TO.N,DIR5*%
X93093300Y-68654700D02*
X92121300Y-69626700D01*
X94078000Y-67086700D02*
X93093300Y-68071400D01*
X93685900Y-59466700D02*
X94253600Y-59466700D01*
X91753500Y-56926700D02*
X92686700Y-57859900D01*
X93093300Y-68071400D02*
X93093300Y-68654700D01*
X94477400Y-108903000D02*
X94477400Y-117417000D01*
X90544900Y-94458100D02*
X91200500Y-95113700D01*
X92686700Y-57859900D02*
X92686700Y-58467500D01*
X95268100Y-66487400D02*
X94668800Y-67086700D01*
X95268100Y-60481200D02*
X95268100Y-66487400D01*
X91620000Y-56926700D02*
X91753500Y-56926700D01*
X91810600Y-95113700D02*
X92827300Y-96130400D01*
X94253600Y-59466700D02*
X95268100Y-60481200D01*
X92827300Y-96130400D02*
X92827300Y-107253000D01*
X92121300Y-69626700D02*
X91582700Y-69626700D01*
X91620000Y-55860000D02*
X91620000Y-56926700D01*
X92686700Y-58467500D02*
X93685900Y-59466700D01*
X94668800Y-67086700D02*
X94078000Y-67086700D01*
X90544900Y-70664500D02*
X90544900Y-94458100D01*
X91200500Y-95113700D02*
X91810600Y-95113700D01*
X91582700Y-69626700D02*
X90544900Y-70664500D01*
X92827300Y-107253000D02*
X94477400Y-108903000D01*
%TO.N,STEP5*%
X149282000Y-113475000D02*
X149282000Y-61884800D01*
X148943000Y-113814000D02*
X149282000Y-113475000D01*
X152580000Y-58586500D02*
X152580000Y-58400000D01*
X149282000Y-61884800D02*
X152580000Y-58586500D01*
%TO.N,STEP6*%
X152580000Y-60940000D02*
X153652000Y-62011600D01*
X153652000Y-91963300D02*
X152925000Y-92690000D01*
X153652000Y-62011600D02*
X153652000Y-91963300D01*
%TO.N,STEP7*%
X156595000Y-87405200D02*
X155120000Y-88880000D01*
X156595000Y-75365100D02*
X156595000Y-87405200D01*
X160000000Y-71960000D02*
X156595000Y-75365100D01*
%TO.N,DIR7*%
X157127000Y-71638100D02*
X157441000Y-71951600D01*
X157127000Y-69409600D02*
X157127000Y-71638100D01*
%TO.N,DIR1*%
X94160000Y-99040000D02*
X95260500Y-100140000D01*
X95260500Y-100140000D02*
X95260500Y-120706000D01*
X95260500Y-120706000D02*
X90070000Y-125896000D01*
%TO.N,STEP1*%
X149282000Y-117786000D02*
X150982000Y-116086000D01*
X150982000Y-116086000D02*
X150982000Y-80317900D01*
X150982000Y-80317900D02*
X152580000Y-78720000D01*
%TO.N,STEP2*%
X113690000Y-88322300D02*
X113690000Y-125896000D01*
X115898000Y-86114800D02*
X113690000Y-88322300D01*
%TO.N,DIR2*%
X112390000Y-65313100D02*
X112390000Y-124656000D01*
X110003000Y-62926600D02*
X112390000Y-65313100D01*
X112390000Y-124656000D02*
X111150000Y-125896000D01*
%TO.N,STEP3*%
X135032000Y-115104000D02*
X134746000Y-114818000D01*
X135032000Y-125760000D02*
X135032000Y-115104000D01*
X134746000Y-114818000D02*
X134746000Y-100244000D01*
X135000000Y-125792000D02*
X135032000Y-125760000D01*
X134746000Y-100244000D02*
X133580000Y-99078600D01*
%TO.N,DIR3*%
X129647000Y-64699100D02*
X130633000Y-63713400D01*
X132460000Y-125792000D02*
X130188000Y-123520000D01*
X129647000Y-114800000D02*
X129647000Y-64699100D01*
X130188000Y-115341000D02*
X129647000Y-114800000D01*
X130188000Y-123520000D02*
X130188000Y-115341000D01*
%TO.N,LIMIT1_OUT*%
X108631000Y-78191700D02*
X108631000Y-98233000D01*
X108722000Y-78100300D02*
X108631000Y-78191700D01*
X108631000Y-98233000D02*
X108989000Y-98591300D01*
%TO.N,MOSI_OUT*%
X106429000Y-75681900D02*
X105310000Y-76801100D01*
X105310000Y-76801100D02*
X105310000Y-125896000D01*
%TO.N,Net-(TMC2-MISO)*%
X147700000Y-123042000D02*
X148008000Y-122734000D01*
X147700000Y-125792000D02*
X147700000Y-123042000D01*
%TO.N,Net-(TMC4-MISO)*%
X156519000Y-120439000D02*
X156519000Y-104973000D01*
X161580000Y-125500000D02*
X156519000Y-120439000D01*
%TO.N,Net-(TMC5-MISO)*%
X158694000Y-104849000D02*
X158694000Y-108614000D01*
X158344000Y-98211900D02*
X158344000Y-104499000D01*
X160000000Y-80760000D02*
X158289000Y-82471400D01*
X158528000Y-97695300D02*
X158694000Y-97861600D01*
X158289000Y-82471400D02*
X158289000Y-97456400D01*
X158579000Y-104734000D02*
X158694000Y-104849000D01*
X158694000Y-108614000D02*
X160500000Y-110420000D01*
X158289000Y-97456400D02*
X158528000Y-97695300D01*
X158528000Y-97695300D02*
X158694000Y-97861600D01*
X158344000Y-104499000D02*
X158579000Y-104734000D01*
X158579000Y-104734000D02*
X158694000Y-104849000D01*
X158694000Y-97861600D02*
X158344000Y-98211900D01*
%TO.N,Net-(TMC6-MISO)*%
X162170000Y-61430500D02*
X160000000Y-59260000D01*
X162484000Y-85896400D02*
X160000000Y-88380000D01*
X162337000Y-65152700D02*
X162170000Y-64986400D01*
X162170000Y-64986400D02*
X162170000Y-61430500D01*
X162572000Y-84005400D02*
X162484000Y-84094000D01*
X162572000Y-65388100D02*
X162572000Y-84005400D01*
X162337000Y-65152700D02*
X162170000Y-64986400D01*
X162337000Y-65152700D02*
X162572000Y-65388100D01*
X162484000Y-84094000D02*
X162484000Y-85896400D01*
D29*
%TO.N,/MOTOR1_A1*%
X102770000Y-143650000D02*
X106620000Y-147500000D01*
X102770000Y-139104000D02*
X102770000Y-143650000D01*
%TO.N,/MOTOR1_A2*%
X100230000Y-146190000D02*
X100230000Y-139104000D01*
X101540000Y-147500000D02*
X100230000Y-146190000D01*
%TO.N,/MOTOR1_B1*%
X97690000Y-139104000D02*
X97690000Y-146270000D01*
X97690000Y-146270000D02*
X96460000Y-147500000D01*
%TO.N,/MOTOR1_B2*%
X95150000Y-143730000D02*
X95150000Y-139104000D01*
X91380000Y-147500000D02*
X95150000Y-143730000D01*
%TO.N,/MOTOR2_A1*%
X123850000Y-144110000D02*
X123850000Y-139104000D01*
X127240000Y-147500000D02*
X123850000Y-144110000D01*
%TO.N,/MOTOR2_B2*%
X116230000Y-143270000D02*
X112000000Y-147500000D01*
X116230000Y-139104000D02*
X116230000Y-143270000D01*
%TO.N,/MOTOR2_A2*%
X121310000Y-139104000D02*
X121310000Y-146650000D01*
X121310000Y-146650000D02*
X122160000Y-147500000D01*
%TO.N,/MOTOR2_B1*%
X118770000Y-145810000D02*
X117080000Y-147500000D01*
X118770000Y-139104000D02*
X118770000Y-145810000D01*
%TO.N,/MOTOR3_B2*%
X132500000Y-147500000D02*
X137540000Y-142460000D01*
X137540000Y-142460000D02*
X137540000Y-139000000D01*
%TO.N,/MOTOR3_A1*%
X145160000Y-144920000D02*
X145160000Y-139000000D01*
X147740000Y-147500000D02*
X145160000Y-144920000D01*
%TO.N,/MOTOR3_B1*%
X140080000Y-145000000D02*
X140080000Y-139000000D01*
X137580000Y-147500000D02*
X140080000Y-145000000D01*
%TO.N,/MOTOR3_A2*%
X142620000Y-147460000D02*
X142620000Y-139000000D01*
X142660000Y-147500000D02*
X142620000Y-147460000D01*
%TO.N,/MOTOR4_A2*%
X164120000Y-146540000D02*
X164120000Y-138708000D01*
X163160000Y-147500000D02*
X164120000Y-146540000D01*
%TO.N,/MOTOR4_B2*%
X153000000Y-144748000D02*
X153000000Y-147500000D01*
X159040000Y-138708000D02*
X153000000Y-144748000D01*
%TO.N,/MOTOR4_B1*%
X158080000Y-147500000D02*
X161580000Y-144000000D01*
X161580000Y-144000000D02*
X161580000Y-138708000D01*
%TO.N,/MOTOR4_A1*%
X168240000Y-147500000D02*
X166660000Y-145920000D01*
X166660000Y-145920000D02*
X166660000Y-138708000D01*
%TO.N,/RIN_1*%
X117810000Y-71955000D02*
X117810000Y-68500000D01*
X117805000Y-71960000D02*
X117810000Y-71955000D01*
%TO.N,/RIN_3*%
X117310000Y-104455000D02*
X117310000Y-101000000D01*
X117305000Y-104460000D02*
X117310000Y-104455000D01*
%TO.N,/RIN_2*%
X117810000Y-84500000D02*
X117810000Y-88455000D01*
X117810000Y-88455000D02*
X117805000Y-88460000D01*
D28*
%TO.N,LIMIT5_OUT*%
X97452000Y-109094000D02*
X97452000Y-98283400D01*
X94540200Y-95371600D02*
X93982300Y-95371600D01*
X92805900Y-82445900D02*
X91620000Y-81260000D01*
X92805900Y-94195200D02*
X92805900Y-82445900D01*
X93982300Y-95371600D02*
X92805900Y-94195200D01*
X97452000Y-98283400D02*
X94540200Y-95371600D01*
%TO.N,Net-(OC1-Pad5)*%
X109015000Y-75669800D02*
X110185000Y-74500000D01*
X110190000Y-78716900D02*
X109015000Y-77542100D01*
X109015000Y-77542100D02*
X109015000Y-75669800D01*
X110190000Y-80500000D02*
X110190000Y-78716900D01*
%TO.N,Net-(OC2-Pad5)*%
X110185000Y-91000000D02*
X109059000Y-92126200D01*
X109059000Y-92126200D02*
X109059000Y-95868800D01*
X109059000Y-95868800D02*
X110190000Y-97000000D01*
%TO.N,Net-(OC3-Pad5)*%
X108515000Y-111325000D02*
X108515000Y-108170000D01*
X108515000Y-108170000D02*
X109685000Y-107000000D01*
X110190000Y-113000000D02*
X108515000Y-111325000D01*
%TD*%
M02*
