%TF.GenerationSoftware,KiCad,Pcbnew,9.0.5*%
%TF.CreationDate,2025-10-28T11:21:23+01:00*%
%TF.ProjectId,wokringv1ar,776f6b72-696e-4677-9631-61722e6b6963,rev?*%
%TF.SameCoordinates,Original*%
%TF.FileFunction,Soldermask,Top*%
%TF.FilePolarity,Negative*%
%FSLAX46Y46*%
G04 Gerber Fmt 4.6, Leading zero omitted, Abs format (unit mm)*
G04 Created by KiCad (PCBNEW 9.0.5) date 2025-10-28 11:21:23*
%MOMM*%
%LPD*%
G01*
G04 APERTURE LIST*
G04 Aperture macros list*
%AMRoundRect*
0 Rectangle with rounded corners*
0 $1 Rounding radius*
0 $2 $3 $4 $5 $6 $7 $8 $9 X,Y pos of 4 corners*
0 Add a 4 corners polygon primitive as box body*
4,1,4,$2,$3,$4,$5,$6,$7,$8,$9,$2,$3,0*
0 Add four circle primitives for the rounded corners*
1,1,$1+$1,$2,$3*
1,1,$1+$1,$4,$5*
1,1,$1+$1,$6,$7*
1,1,$1+$1,$8,$9*
0 Add four rect primitives between the rounded corners*
20,1,$1+$1,$2,$3,$4,$5,0*
20,1,$1+$1,$4,$5,$6,$7,0*
20,1,$1+$1,$6,$7,$8,$9,0*
20,1,$1+$1,$8,$9,$2,$3,0*%
G04 Aperture macros list end*
%ADD10RoundRect,0.250000X-1.000000X1.000000X-1.000000X-1.000000X1.000000X-1.000000X1.000000X1.000000X0*%
%ADD11C,2.500000*%
%ADD12C,3.000000*%
%ADD13RoundRect,0.102000X-0.802500X-0.802500X0.802500X-0.802500X0.802500X0.802500X-0.802500X0.802500X0*%
%ADD14C,1.809000*%
%ADD15RoundRect,0.102000X-0.765000X-0.765000X0.765000X-0.765000X0.765000X0.765000X-0.765000X0.765000X0*%
%ADD16C,1.734000*%
%ADD17C,2.000000*%
%ADD18RoundRect,0.250000X1.000000X1.000000X-1.000000X1.000000X-1.000000X-1.000000X1.000000X-1.000000X0*%
%ADD19RoundRect,0.250000X-0.750000X0.750000X-0.750000X-0.750000X0.750000X-0.750000X0.750000X0.750000X0*%
%ADD20R,1.700000X1.700000*%
%ADD21C,1.700000*%
%ADD22RoundRect,0.250000X1.050000X-1.050000X1.050000X1.050000X-1.050000X1.050000X-1.050000X-1.050000X0*%
%ADD23C,2.600000*%
%ADD24RoundRect,0.250000X0.550000X0.550000X-0.550000X0.550000X-0.550000X-0.550000X0.550000X-0.550000X0*%
%ADD25C,1.600000*%
%ADD26O,1.600000X1.600000*%
G04 APERTURE END LIST*
D10*
%TO.C,MM6*%
X181500000Y-79000000D03*
D11*
X181500000Y-84080000D03*
X181500000Y-89160000D03*
X181500000Y-94240000D03*
%TD*%
D12*
%TO.C,U1*%
X99240000Y-52050000D03*
X132260000Y-104120000D03*
X147500000Y-53320000D03*
D13*
X147500000Y-79740000D03*
D14*
X147500000Y-77200000D03*
X147500000Y-74660000D03*
X147500000Y-72120000D03*
X147500000Y-69580000D03*
X147500000Y-67040000D03*
X147500000Y-64500000D03*
X147500000Y-61960000D03*
X147500000Y-59420000D03*
X147500000Y-56880000D03*
D13*
X99240000Y-66020000D03*
D14*
X99240000Y-68560000D03*
X99240000Y-71100000D03*
X99240000Y-73640000D03*
X99240000Y-76180000D03*
X99240000Y-78720000D03*
X99240000Y-81260000D03*
X99240000Y-83800000D03*
D15*
X91620000Y-55860000D03*
D16*
X94160000Y-55860000D03*
X91620000Y-58400000D03*
X94160000Y-58400000D03*
X91620000Y-60940000D03*
X94160000Y-60940000D03*
X91620000Y-63480000D03*
X94160000Y-63480000D03*
X91620000Y-66020000D03*
X94160000Y-66020000D03*
X91620000Y-68560000D03*
X94160000Y-68560000D03*
X91620000Y-71100000D03*
X94160000Y-71100000D03*
X91620000Y-73640000D03*
X94160000Y-73640000D03*
X91620000Y-76180000D03*
X94160000Y-76180000D03*
X91620000Y-78720000D03*
X94160000Y-78720000D03*
X91620000Y-81260000D03*
X94160000Y-81260000D03*
X91620000Y-83800000D03*
X94160000Y-83800000D03*
X91620000Y-86340000D03*
X94160000Y-86340000D03*
X91620000Y-88880000D03*
X94160000Y-88880000D03*
X91620000Y-91420000D03*
X94160000Y-91420000D03*
X91620000Y-93960000D03*
X94160000Y-93960000D03*
X91620000Y-96500000D03*
X94160000Y-96500000D03*
X91620000Y-99040000D03*
X94160000Y-99040000D03*
X91620000Y-101580000D03*
X94160000Y-101580000D03*
D13*
X99240000Y-88880000D03*
D14*
X99240000Y-91420000D03*
X99240000Y-93960000D03*
X99240000Y-96500000D03*
X99240000Y-99040000D03*
X99240000Y-101580000D03*
D13*
X147500000Y-101580000D03*
D14*
X147500000Y-99040000D03*
X147500000Y-96500000D03*
X147500000Y-93960000D03*
X147500000Y-91420000D03*
X147500000Y-88880000D03*
X147500000Y-86340000D03*
X147500000Y-83800000D03*
D15*
X152580000Y-55860000D03*
D16*
X155120000Y-55860000D03*
X152580000Y-58400000D03*
X155120000Y-58400000D03*
X152580000Y-60940000D03*
X155120000Y-60940000D03*
X152580000Y-63480000D03*
X155120000Y-63480000D03*
X152580000Y-66020000D03*
X155120000Y-66020000D03*
X152580000Y-68560000D03*
X155120000Y-68560000D03*
X152580000Y-71100000D03*
X155120000Y-71100000D03*
X152580000Y-73640000D03*
X155120000Y-73640000D03*
X152580000Y-76180000D03*
X155120000Y-76180000D03*
X152580000Y-78720000D03*
X155120000Y-78720000D03*
X152580000Y-81260000D03*
X155120000Y-81260000D03*
X152580000Y-83800000D03*
X155120000Y-83800000D03*
X152580000Y-86340000D03*
X155120000Y-86340000D03*
X152580000Y-88880000D03*
X155120000Y-88880000D03*
X152580000Y-91420000D03*
X155120000Y-91420000D03*
X152580000Y-93960000D03*
X155120000Y-93960000D03*
X152580000Y-96500000D03*
X155120000Y-96500000D03*
X152580000Y-99040000D03*
X155120000Y-99040000D03*
X152580000Y-101580000D03*
X155120000Y-101580000D03*
%TD*%
D17*
%TO.C,TMC2*%
X128930000Y-125896000D03*
X126390000Y-125896000D03*
X123850000Y-125896000D03*
X121310000Y-125896000D03*
X118770000Y-125896000D03*
X116230000Y-125896000D03*
X113690000Y-125896000D03*
X111150000Y-125896000D03*
X128930000Y-139104000D03*
X126390000Y-139104000D03*
X123850000Y-139104000D03*
X121310000Y-139104000D03*
X118770000Y-139104000D03*
X116230000Y-139104000D03*
X113690000Y-139104000D03*
X111150000Y-139104000D03*
%TD*%
D18*
%TO.C,MM2*%
X127240000Y-147500000D03*
D11*
X122160000Y-147500000D03*
X117080000Y-147500000D03*
X112000000Y-147500000D03*
%TD*%
D19*
%TO.C,J1*%
X92000000Y-116500000D03*
D17*
X92000000Y-119040000D03*
X92000000Y-121580000D03*
%TD*%
%TO.C,TMC1*%
X107850000Y-125896000D03*
X105310000Y-125896000D03*
X102770000Y-125896000D03*
X100230000Y-125896000D03*
X97690000Y-125896000D03*
X95150000Y-125896000D03*
X92610000Y-125896000D03*
X90070000Y-125896000D03*
X107850000Y-139104000D03*
X105310000Y-139104000D03*
X102770000Y-139104000D03*
X100230000Y-139104000D03*
X97690000Y-139104000D03*
X95150000Y-139104000D03*
X92610000Y-139104000D03*
X90070000Y-139104000D03*
%TD*%
D10*
%TO.C,MM5*%
X181500000Y-99500000D03*
D11*
X181500000Y-104580000D03*
X181500000Y-109660000D03*
X181500000Y-114740000D03*
%TD*%
D10*
%TO.C,MM7*%
X181500000Y-58260000D03*
D11*
X181500000Y-63340000D03*
X181500000Y-68420000D03*
X181500000Y-73500000D03*
%TD*%
D17*
%TO.C,TMC3*%
X150240000Y-125792000D03*
X147700000Y-125792000D03*
X145160000Y-125792000D03*
X142620000Y-125792000D03*
X140080000Y-125792000D03*
X137540000Y-125792000D03*
X135000000Y-125792000D03*
X132460000Y-125792000D03*
X150240000Y-139000000D03*
X147700000Y-139000000D03*
X145160000Y-139000000D03*
X142620000Y-139000000D03*
X140080000Y-139000000D03*
X137540000Y-139000000D03*
X135000000Y-139000000D03*
X132460000Y-139000000D03*
%TD*%
%TO.C,TMC5*%
X160500000Y-100260000D03*
X160500000Y-102800000D03*
X160500000Y-105340000D03*
X160500000Y-107880000D03*
X160500000Y-110420000D03*
X160500000Y-112960000D03*
X160500000Y-115500000D03*
X160500000Y-118040000D03*
X173708000Y-100260000D03*
X173708000Y-102800000D03*
X173708000Y-105340000D03*
X173708000Y-107880000D03*
X173708000Y-110420000D03*
X173708000Y-112960000D03*
X173708000Y-115500000D03*
X173708000Y-118040000D03*
%TD*%
%TO.C,TMC7*%
X160000000Y-56720000D03*
X160000000Y-59260000D03*
X160000000Y-61800000D03*
X160000000Y-64340000D03*
X160000000Y-66880000D03*
X160000000Y-69420000D03*
X160000000Y-71960000D03*
X160000000Y-74500000D03*
X173208000Y-56720000D03*
X173208000Y-59260000D03*
X173208000Y-61800000D03*
X173208000Y-64340000D03*
X173208000Y-66880000D03*
X173208000Y-69420000D03*
X173208000Y-71960000D03*
X173208000Y-74500000D03*
%TD*%
%TO.C,TMC4*%
X171740000Y-125500000D03*
X169200000Y-125500000D03*
X166660000Y-125500000D03*
X164120000Y-125500000D03*
X161580000Y-125500000D03*
X159040000Y-125500000D03*
X156500000Y-125500000D03*
X153960000Y-125500000D03*
X171740000Y-138708000D03*
X169200000Y-138708000D03*
X166660000Y-138708000D03*
X164120000Y-138708000D03*
X161580000Y-138708000D03*
X159040000Y-138708000D03*
X156500000Y-138708000D03*
X153960000Y-138708000D03*
%TD*%
D18*
%TO.C,MM4*%
X168240000Y-147500000D03*
D11*
X163160000Y-147500000D03*
X158080000Y-147500000D03*
X153000000Y-147500000D03*
%TD*%
D17*
%TO.C,TMC6*%
X160000000Y-78220000D03*
X160000000Y-80760000D03*
X160000000Y-83300000D03*
X160000000Y-85840000D03*
X160000000Y-88380000D03*
X160000000Y-90920000D03*
X160000000Y-93460000D03*
X160000000Y-96000000D03*
X173208000Y-78220000D03*
X173208000Y-80760000D03*
X173208000Y-83300000D03*
X173208000Y-85840000D03*
X173208000Y-88380000D03*
X173208000Y-90920000D03*
X173208000Y-93460000D03*
X173208000Y-96000000D03*
%TD*%
D20*
%TO.C,Encoder_MUX_VIO1*%
X144040000Y-119045000D03*
D21*
X141500000Y-119045000D03*
X138960000Y-119045000D03*
X136420000Y-119045000D03*
X133880000Y-119045000D03*
X131340000Y-119045000D03*
X128800000Y-119045000D03*
X126260000Y-119045000D03*
X123720000Y-119045000D03*
X121180000Y-119045000D03*
%TD*%
D18*
%TO.C,MM3*%
X147740000Y-147500000D03*
D11*
X142660000Y-147500000D03*
X137580000Y-147500000D03*
X132500000Y-147500000D03*
%TD*%
D18*
%TO.C,MM1*%
X106620000Y-147500000D03*
D11*
X101540000Y-147500000D03*
X96460000Y-147500000D03*
X91380000Y-147500000D03*
%TD*%
D22*
%TO.C,PS1*%
X182667500Y-131045000D03*
D23*
X182667500Y-125965000D03*
%TD*%
D20*
%TO.C,Encoder_MUX_GND1*%
X143540000Y-110500000D03*
D21*
X141000000Y-110500000D03*
X138460000Y-110500000D03*
X135920000Y-110500000D03*
X133380000Y-110500000D03*
X130840000Y-110500000D03*
X128300000Y-110500000D03*
X125760000Y-110500000D03*
X123220000Y-110500000D03*
X120680000Y-110500000D03*
%TD*%
D24*
%TO.C,OC1*%
X117805000Y-71960000D03*
D25*
X117805000Y-74500000D03*
X117805000Y-77040000D03*
X110185000Y-77040000D03*
X110185000Y-74500000D03*
X110185000Y-71960000D03*
%TD*%
%TO.C,R4*%
X117810000Y-80500000D03*
X110190000Y-80500000D03*
%TD*%
D24*
%TO.C,OC2*%
X117805000Y-88460000D03*
D25*
X117805000Y-91000000D03*
X117805000Y-93540000D03*
X110185000Y-93540000D03*
X110185000Y-91000000D03*
X110185000Y-88460000D03*
%TD*%
%TO.C,R3*%
X117310000Y-101000000D03*
D26*
X109690000Y-101000000D03*
%TD*%
D25*
%TO.C,R2*%
X117810000Y-84500000D03*
D26*
X110190000Y-84500000D03*
%TD*%
D25*
%TO.C,R5*%
X117810000Y-97000000D03*
X110190000Y-97000000D03*
%TD*%
D24*
%TO.C,OC3*%
X117305000Y-104460000D03*
D25*
X117305000Y-107000000D03*
X117305000Y-109540000D03*
X109685000Y-109540000D03*
X109685000Y-107000000D03*
X109685000Y-104460000D03*
%TD*%
%TO.C,R6*%
X117810000Y-113000000D03*
X110190000Y-113000000D03*
%TD*%
%TO.C,R1*%
X117810000Y-68500000D03*
D26*
X110190000Y-68500000D03*
%TD*%
M02*
