M48
; DRILL file {KiCad 9.0.5} date 2025-10-28T11:21:57+0100
; FORMAT={-:-/ absolute / metric / decimal}
; #@! TF.CreationDate,2025-10-28T11:21:57+01:00
; #@! TF.GenerationSoftware,Kicad,Pcbnew,9.0.5
; #@! TF.FileFunction,Plated,1,2,PTH
FMAT,2
METRIC
; #@! TA.AperFunction,Plated,PTH,ViaDrill
T1C0.300
; #@! TA.AperFunction,Plated,PTH,ViaDrill
T2C0.400
; #@! TA.AperFunction,Plated,PTH,ComponentDrill
T3C0.800
; #@! TA.AperFunction,Plated,PTH,ComponentDrill
T4C1.000
; #@! TA.AperFunction,Plated,PTH,ComponentDrill
T5C1.020
; #@! TA.AperFunction,Plated,PTH,ComponentDrill
T6C1.070
; #@! TA.AperFunction,Plated,PTH,ComponentDrill
T7C1.200
; #@! TA.AperFunction,Plated,PTH,ComponentDrill
T8C1.300
%
G90
G05
T1
X94.477Y-117.417
X97.452Y-109.094
X106.429Y-75.682
X107.056Y-128.871
X108.722Y-78.1
X108.989Y-98.591
X110.003Y-62.927
X112.95Y-136.503
X115.111Y-113.814
X115.898Y-86.115
X116.291Y-117.486
X120.896Y-122.476
X130.633Y-63.713
X130.633Y-143.724
X132.893Y-142.589
X133.58Y-99.079
X148.008Y-122.734
X148.943Y-113.814
X149.046Y-61.231
X149.282Y-117.786
X150.585Y-119.649
X152.925Y-92.69
X156.519Y-104.973
X157.127Y-69.41
X157.441Y-71.952
X161.955Y-82.939
X163.085Y-84.343
X163.598Y-78.449
X168.67Y-96.015
X168.945Y-75.502
X170.812Y-98.056
X171.65Y-98.059
X175.769Y-72.555
X176.011Y-93.184
T2
X110.003Y-134.444
X173.756Y-133.361
T3
X109.685Y-104.46
X109.685Y-107.0
X109.685Y-109.54
X109.69Y-101.0
X110.185Y-71.96
X110.185Y-74.5
X110.185Y-77.04
X110.185Y-88.46
X110.185Y-91.0
X110.185Y-93.54
X110.19Y-68.5
X110.19Y-80.5
X110.19Y-84.5
X110.19Y-97.0
X110.19Y-113.0
X117.305Y-104.46
X117.305Y-107.0
X117.305Y-109.54
X117.31Y-101.0
X117.805Y-71.96
X117.805Y-74.5
X117.805Y-77.04
X117.805Y-88.46
X117.805Y-91.0
X117.805Y-93.54
X117.81Y-68.5
X117.81Y-80.5
X117.81Y-84.5
X117.81Y-97.0
X117.81Y-113.0
T4
X90.07Y-125.896
X90.07Y-139.104
X92.61Y-125.896
X92.61Y-139.104
X95.15Y-125.896
X95.15Y-139.104
X97.69Y-125.896
X97.69Y-139.104
X100.23Y-125.896
X100.23Y-139.104
X102.77Y-125.896
X102.77Y-139.104
X105.31Y-125.896
X105.31Y-139.104
X107.85Y-125.896
X107.85Y-139.104
X111.15Y-125.896
X111.15Y-139.104
X113.69Y-125.896
X113.69Y-139.104
X116.23Y-125.896
X116.23Y-139.104
X118.77Y-125.896
X118.77Y-139.104
X120.68Y-110.5
X121.18Y-119.045
X121.31Y-125.896
X121.31Y-139.104
X123.22Y-110.5
X123.72Y-119.045
X123.85Y-125.896
X123.85Y-139.104
X125.76Y-110.5
X126.26Y-119.045
X126.39Y-125.896
X126.39Y-139.104
X128.3Y-110.5
X128.8Y-119.045
X128.93Y-125.896
X128.93Y-139.104
X130.84Y-110.5
X131.34Y-119.045
X132.46Y-125.792
X132.46Y-139.0
X133.38Y-110.5
X133.88Y-119.045
X135.0Y-125.792
X135.0Y-139.0
X135.92Y-110.5
X136.42Y-119.045
X137.54Y-125.792
X137.54Y-139.0
X138.46Y-110.5
X138.96Y-119.045
X140.08Y-125.792
X140.08Y-139.0
X141.0Y-110.5
X141.5Y-119.045
X142.62Y-125.792
X142.62Y-139.0
X143.54Y-110.5
X144.04Y-119.045
X145.16Y-125.792
X145.16Y-139.0
X147.7Y-125.792
X147.7Y-139.0
X150.24Y-125.792
X150.24Y-139.0
X153.96Y-125.5
X153.96Y-138.708
X156.5Y-125.5
X156.5Y-138.708
X159.04Y-125.5
X159.04Y-138.708
X160.0Y-56.72
X160.0Y-59.26
X160.0Y-61.8
X160.0Y-64.34
X160.0Y-66.88
X160.0Y-69.42
X160.0Y-71.96
X160.0Y-74.5
X160.0Y-78.22
X160.0Y-80.76
X160.0Y-83.3
X160.0Y-85.84
X160.0Y-88.38
X160.0Y-90.92
X160.0Y-93.46
X160.0Y-96.0
X160.5Y-100.26
X160.5Y-102.8
X160.5Y-105.34
X160.5Y-107.88
X160.5Y-110.42
X160.5Y-112.96
X160.5Y-115.5
X160.5Y-118.04
X161.58Y-125.5
X161.58Y-138.708
X164.12Y-125.5
X164.12Y-138.708
X166.66Y-125.5
X166.66Y-138.708
X169.2Y-125.5
X169.2Y-138.708
X171.74Y-125.5
X171.74Y-138.708
X173.208Y-56.72
X173.208Y-59.26
X173.208Y-61.8
X173.208Y-64.34
X173.208Y-66.88
X173.208Y-69.42
X173.208Y-71.96
X173.208Y-74.5
X173.208Y-78.22
X173.208Y-80.76
X173.208Y-83.3
X173.208Y-85.84
X173.208Y-88.38
X173.208Y-90.92
X173.208Y-93.46
X173.208Y-96.0
X173.708Y-100.26
X173.708Y-102.8
X173.708Y-105.34
X173.708Y-107.88
X173.708Y-110.42
X173.708Y-112.96
X173.708Y-115.5
X173.708Y-118.04
T5
X91.62Y-55.86
X91.62Y-58.4
X91.62Y-60.94
X91.62Y-63.48
X91.62Y-66.02
X91.62Y-68.56
X91.62Y-71.1
X91.62Y-73.64
X91.62Y-76.18
X91.62Y-78.72
X91.62Y-81.26
X91.62Y-83.8
X91.62Y-86.34
X91.62Y-88.88
X91.62Y-91.42
X91.62Y-93.96
X91.62Y-96.5
X91.62Y-99.04
X91.62Y-101.58
X94.16Y-55.86
X94.16Y-58.4
X94.16Y-60.94
X94.16Y-63.48
X94.16Y-66.02
X94.16Y-68.56
X94.16Y-71.1
X94.16Y-73.64
X94.16Y-76.18
X94.16Y-78.72
X94.16Y-81.26
X94.16Y-83.8
X94.16Y-86.34
X94.16Y-88.88
X94.16Y-91.42
X94.16Y-93.96
X94.16Y-96.5
X94.16Y-99.04
X94.16Y-101.58
X152.58Y-55.86
X152.58Y-58.4
X152.58Y-60.94
X152.58Y-63.48
X152.58Y-66.02
X152.58Y-68.56
X152.58Y-71.1
X152.58Y-73.64
X152.58Y-76.18
X152.58Y-78.72
X152.58Y-81.26
X152.58Y-83.8
X152.58Y-86.34
X152.58Y-88.88
X152.58Y-91.42
X152.58Y-93.96
X152.58Y-96.5
X152.58Y-99.04
X152.58Y-101.58
X155.12Y-55.86
X155.12Y-58.4
X155.12Y-60.94
X155.12Y-63.48
X155.12Y-66.02
X155.12Y-68.56
X155.12Y-71.1
X155.12Y-73.64
X155.12Y-76.18
X155.12Y-78.72
X155.12Y-81.26
X155.12Y-83.8
X155.12Y-86.34
X155.12Y-88.88
X155.12Y-91.42
X155.12Y-93.96
X155.12Y-96.5
X155.12Y-99.04
X155.12Y-101.58
T6
X99.24Y-66.02
X99.24Y-68.56
X99.24Y-71.1
X99.24Y-73.64
X99.24Y-76.18
X99.24Y-78.72
X99.24Y-81.26
X99.24Y-83.8
X99.24Y-88.88
X99.24Y-91.42
X99.24Y-93.96
X99.24Y-96.5
X99.24Y-99.04
X99.24Y-101.58
X147.5Y-56.88
X147.5Y-59.42
X147.5Y-61.96
X147.5Y-64.5
X147.5Y-67.04
X147.5Y-69.58
X147.5Y-72.12
X147.5Y-74.66
X147.5Y-77.2
X147.5Y-79.74
X147.5Y-83.8
X147.5Y-86.34
X147.5Y-88.88
X147.5Y-91.42
X147.5Y-93.96
X147.5Y-96.5
X147.5Y-99.04
X147.5Y-101.58
T7
X92.0Y-116.5
X92.0Y-119.04
X92.0Y-121.58
T8
X91.38Y-147.5
X96.46Y-147.5
X101.54Y-147.5
X106.62Y-147.5
X112.0Y-147.5
X117.08Y-147.5
X122.16Y-147.5
X127.24Y-147.5
X132.5Y-147.5
X137.58Y-147.5
X142.66Y-147.5
X147.74Y-147.5
X153.0Y-147.5
X158.08Y-147.5
X163.16Y-147.5
X168.24Y-147.5
X181.5Y-58.26
X181.5Y-63.34
X181.5Y-68.42
X181.5Y-73.5
X181.5Y-79.0
X181.5Y-84.08
X181.5Y-89.16
X181.5Y-94.24
X181.5Y-99.5
X181.5Y-104.58
X181.5Y-109.66
X181.5Y-114.74
X182.667Y-125.965
X182.667Y-131.045
M30
